<svg xmlns="http://www.w3.org/2000/svg" viewBox="0 0 330 81">
    <g fill="#a58a45">
        <g transform="translate(0, -14)">
            <path d="M0 50.30L0 48.65Q1.90 48.55 2.60 47.77Q3.30 47 3.38 45.63Q3.45 44.25 3.45 42.50L3.45 20.90Q3.45 19.90 3.50 18.97Q3.55 18.05 3.60 17.30Q2.70 17.35 1.80 17.40Q0.90 17.45 0 17.50L0 15.30L11.25 15.30L11.25 16.95Q9.40 17.00 8.68 17.80Q7.95 18.60 7.88 19.95Q7.80 21.30 7.80 23.10L7.80 44.55Q7.80 45.90 7.78 46.85Q7.75 47.80 7.65 48.45L17 48.30Q20.15 48.25 21.78 46.30Q23.40 44.35 23.40 39.95L25.10 39.95L24.80 50.30L0 50.30ZM25.85 50.30L25.85 48.65Q27.35 48.65 28.15 47.85Q28.95 47.05 29.48 45.65Q30.00 44.25 30.70 42.40L41 14.35L42.20 14.35L53.35 42.80Q53.75 43.85 54.25 45.50Q54.75 47.15 54.65 48.30Q55.50 48.25 56.35 48.20Q57.20 48.15 58.05 48.10L58.05 50.30L46.60 50.30L46.60 48.65Q48.50 48.60 49.10 47.80Q49.70 47 49.55 45.90Q49.40 44.80 49.05 43.90L47.30 39.20L34.30 39.50L32.55 44.85Q32.20 46.05 31.93 46.75Q31.65 47.45 31.30 48.30Q32.30 48.25 33.28 48.20Q34.25 48.15 35.20 48.10L35.20 50.30L25.85 50.30M35.05 37.35L46.60 37.35L43.05 27.80Q42.50 26.25 41.93 24.72Q41.35 23.20 40.80 21.65L40.70 21.65Q40.20 23.05 39.68 24.45Q39.15 25.85 38.60 27.30L35.05 37.35ZM73.35 50.30L73.35 48.65Q75.25 48.55 75.95 47.77Q76.65 47 76.73 45.63Q76.80 44.25 76.80 42.50L76.80 20.90Q76.80 19.90 76.85 18.97Q76.90 18.05 76.95 17.30Q76.05 17.35 75.15 17.40Q74.25 17.45 73.35 17.50L73.35 15.30L96.55 15.30L96.80 24.05L95.15 24.05Q95.15 21.10 94.20 19.57Q93.25 18.05 91.70 17.52Q90.15 17.00 88.25 17.05L84.60 17.15Q82.75 17.20 82.05 18.02Q81.35 18.85 81.25 20.20Q81.15 21.55 81.15 23.30L81.15 31.90L89.85 31.95L89.50 27.60L91.70 27.60L91.70 38.15L90.10 38.15Q90.10 35.90 89.48 34.95Q88.85 34 87.55 33.80Q86.25 33.60 84.15 33.70L81.15 33.85L81.15 44.35Q81.15 45.70 81.13 46.67Q81.10 47.65 81.00 48.30Q81.85 48.25 82.70 48.22Q83.55 48.20 84.40 48.15Q85.25 48.10 86.10 48.10L86.10 50.30L73.35 50.30ZM118.15 37.35Q118.15 35.15 117.55 34.20Q116.95 33.25 115.65 33.05Q114.35 32.85 112.20 32.95L108.55 33.10L108.55 44.55Q108.55 45.90 108.53 46.85Q108.50 47.80 108.40 48.45L117.95 48.30Q120.15 48.25 121.75 47.57Q123.35 46.90 124.25 45.20Q125.15 43.50 125.15 40.55L126.85 40.55L126.55 50.30L100.75 50.30L100.75 48.65Q102.65 48.55 103.35 47.77Q104.05 47 104.13 45.63Q104.20 44.25 104.20 42.50L104.20 20.90Q104.20 19.90 104.25 18.97Q104.30 18.05 104.35 17.30Q103.45 17.35 102.55 17.40Q101.65 17.45 100.75 17.50L100.75 15.30L124.80 15.30L125.05 24.05L123.40 24.05Q123.40 21.10 122.50 19.57Q121.60 18.05 120.08 17.52Q118.55 17.00 116.65 17.05L112.35 17.15Q110.50 17.20 109.70 17.85Q108.90 18.50 108.73 19.77Q108.55 21.05 108.55 23.10L108.55 31.10L117.95 31.15L117.60 26.85L119.80 26.85L119.80 37.35L118.15 37.35ZM159.50 26.45Q159.00 21.75 156.23 19.15Q153.45 16.55 149.10 16.55Q146.45 16.55 144.13 17.67Q141.80 18.80 140.05 20.90Q138.30 23.00 137.30 25.95Q136.30 28.90 136.30 32.60Q136.30 37.30 138.10 40.90Q139.90 44.50 142.95 46.50Q146.00 48.50 149.70 48.50Q152.95 48.50 156.10 47.02Q159.25 45.55 161.25 42.75L162.55 43.80Q160.40 46.75 157.90 48.35Q155.40 49.95 152.93 50.52Q150.45 51.10 148.40 51.10Q144.65 51.10 141.53 49.75Q138.40 48.40 136.13 45.97Q133.85 43.55 132.63 40.32Q131.40 37.10 131.40 33.35Q131.40 29.80 132.48 26.45Q133.55 23.10 135.70 20.40Q137.85 17.70 141.13 16.10Q144.40 14.50 148.75 14.50Q151.55 14.50 154.05 15.25Q156.55 16.00 158.85 17.55L158.60 14.85L161.30 14.85L161.30 26.45L159.50 26.45ZM166.80 50.30L166.80 48.65Q168.70 48.55 169.40 47.77Q170.10 47 170.18 45.63Q170.25 44.25 170.25 42.50L170.25 20.90Q170.25 19.90 170.30 18.97Q170.35 18.05 170.40 17.30Q169.50 17.35 168.60 17.40Q167.70 17.45 166.80 17.50L166.80 15.30L178.05 15.30L178.05 16.95Q176.20 17.00 175.48 17.80Q174.75 18.60 174.68 19.95Q174.60 21.30 174.60 23.10L174.60 31.40L192.50 31.40L192.50 20.90Q192.50 19.90 192.55 18.97Q192.60 18.05 192.65 17.30Q191.75 17.35 190.85 17.40Q189.95 17.45 189.05 17.50L189.05 15.30L200.30 15.30L200.30 16.95Q198.45 17.00 197.73 17.80Q197 18.60 196.93 19.95Q196.85 21.30 196.85 23.10L196.85 44.35Q196.85 45.70 196.83 46.67Q196.80 47.65 196.70 48.30Q197.60 48.25 198.50 48.20Q199.40 48.15 200.30 48.10L200.30 50.30L189.05 50.30L189.05 48.65Q190.95 48.55 191.65 47.77Q192.35 47 192.43 45.63Q192.50 44.25 192.50 42.50L192.50 33.40L174.60 33.60L174.60 44.35Q174.60 45.70 174.58 46.67Q174.55 47.65 174.45 48.30Q175.35 48.25 176.25 48.20Q177.15 48.15 178.05 48.10L178.05 50.30L166.80 50.30ZM202.75 50.30L202.75 48.65Q204.25 48.65 205.05 47.85Q205.85 47.05 206.38 45.65Q206.90 44.25 207.60 42.40L217.90 14.35L219.10 14.35L230.25 42.80Q230.65 43.85 231.15 45.50Q231.65 47.15 231.55 48.30Q232.40 48.25 233.25 48.20Q234.10 48.15 234.95 48.10L234.95 50.30L223.50 50.30L223.50 48.65Q225.40 48.60 226 47.80Q226.60 47 226.45 45.90Q226.30 44.80 225.95 43.90L224.20 39.20L211.20 39.50L209.45 44.85Q209.10 46.05 208.83 46.75Q208.55 47.45 208.20 48.30Q209.20 48.25 210.18 48.20Q211.15 48.15 212.10 48.10L212.10 50.30L202.75 50.30M211.95 37.35L223.50 37.35L219.95 27.80Q219.40 26.25 218.83 24.72Q218.25 23.20 217.70 21.65L217.60 21.65Q217.10 23.05 216.58 24.45Q216.05 25.85 215.50 27.30L211.95 37.35Z"/>
        </g>
        <g transform="translate(30, 30)" >
            <path d="M19.50 25.90Q19.35 23.50 18.35 21.35Q17.35 19.20 15.45 17.85Q13.55 16.50 10.60 16.50Q7.50 16.50 5.85 18.25Q4.20 20.00 4.20 22.35Q4.20 24.45 5.40 25.87Q6.60 27.30 8.53 28.37Q10.45 29.45 12.60 30.45Q14.50 31.30 16.40 32.27Q18.30 33.25 19.85 34.50Q21.40 35.75 22.33 37.47Q23.25 39.20 23.25 41.60Q23.25 44.35 21.88 46.50Q20.50 48.65 17.90 49.88Q15.30 51.10 11.55 51.10Q9.30 51.10 6.90 50.45Q4.50 49.80 2.65 48.55L2.90 50.70L0.30 50.70L0 40.05L1.95 40.05Q2.20 44.45 5 46.72Q7.80 49 11.75 49Q13.70 49 15.35 48.27Q17 47.55 17.98 46.15Q18.95 44.75 18.95 42.75Q18.95 40.50 17.75 39Q16.55 37.50 14.65 36.40Q12.75 35.30 10.60 34.30Q8.70 33.45 6.85 32.50Q5 31.55 3.47 30.32Q1.95 29.10 1.02 27.40Q0.10 25.70 0.10 23.30Q0.10 22.00 0.55 20.50Q1 19.00 2.13 17.62Q3.25 16.25 5.22 15.37Q7.20 14.50 10.25 14.50Q12.15 14.50 14.53 15.02Q16.90 15.55 18.95 17.05L18.75 14.90L21.30 14.90L21.30 25.90L19.50 25.90ZM45.60 37.35Q45.60 35.15 45 34.20Q44.40 33.25 43.10 33.05Q41.80 32.85 39.65 32.95L36 33.10L36 44.55Q36 45.90 35.98 46.85Q35.95 47.80 35.85 48.45L45.40 48.30Q47.60 48.25 49.20 47.57Q50.80 46.90 51.70 45.20Q52.60 43.50 52.60 40.55L54.30 40.55L54 50.30L28.20 50.30L28.20 48.65Q30.10 48.55 30.80 47.77Q31.50 47 31.58 45.63Q31.65 44.25 31.65 42.50L31.65 20.90Q31.65 19.90 31.70 18.97Q31.75 18.05 31.80 17.30Q30.90 17.35 30.00 17.40Q29.10 17.45 28.20 17.50L28.20 15.30L52.25 15.30L52.50 24.05L50.85 24.05Q50.85 21.10 49.95 19.57Q49.05 18.05 47.53 17.52Q46 17.00 44.10 17.05L39.80 17.15Q37.95 17.20 37.15 17.85Q36.35 18.50 36.18 19.77Q36 21.05 36 23.10L36 31.10L45.40 31.15L45.05 26.85L47.25 26.85L47.25 37.35L45.60 37.35ZM69.40 50.30L69.40 48.65Q70.90 48.65 71.70 47.85Q72.50 47.05 73.03 45.65Q73.55 44.25 74.25 42.40L84.55 14.35L85.75 14.35L96.90 42.80Q97.30 43.85 97.80 45.50Q98.30 47.15 98.20 48.30Q99.05 48.25 99.90 48.20Q100.75 48.15 101.60 48.10L101.60 50.30L90.15 50.30L90.15 48.65Q92.05 48.60 92.65 47.80Q93.25 47 93.10 45.90Q92.95 44.80 92.60 43.90L90.85 39.20L77.85 39.50L76.10 44.85Q75.75 46.05 75.48 46.75Q75.20 47.45 74.85 48.30Q75.85 48.25 76.83 48.20Q77.80 48.15 78.75 48.10L78.75 50.30L69.40 50.30M78.60 37.35L90.15 37.35L86.60 27.80Q86.05 26.25 85.48 24.72Q84.90 23.20 84.35 21.65L84.25 21.65Q83.75 23.05 83.23 24.45Q82.70 25.85 82.15 27.30L78.60 37.35ZM131.40 26.45Q130.90 21.75 128.13 19.15Q125.35 16.55 121 16.55Q118.35 16.55 116.03 17.67Q113.70 18.80 111.95 20.90Q110.20 23.00 109.20 25.95Q108.20 28.90 108.20 32.60Q108.20 37.30 110 40.90Q111.80 44.50 114.85 46.50Q117.90 48.50 121.60 48.50Q124.85 48.50 128 47.02Q131.15 45.55 133.15 42.75L134.45 43.80Q132.30 46.75 129.80 48.35Q127.30 49.95 124.83 50.52Q122.35 51.10 120.30 51.10Q116.55 51.10 113.42 49.75Q110.30 48.40 108.03 45.97Q105.75 43.55 104.53 40.32Q103.30 37.10 103.30 33.35Q103.30 29.80 104.38 26.45Q105.45 23.10 107.60 20.40Q109.75 17.70 113.03 16.10Q116.30 14.50 120.65 14.50Q123.45 14.50 125.95 15.25Q128.45 16.00 130.75 17.55L130.50 14.85L133.20 14.85L133.20 26.45L131.40 26.45ZM156.10 37.35Q156.10 35.15 155.50 34.20Q154.90 33.25 153.60 33.05Q152.30 32.85 150.15 32.95L146.50 33.10L146.50 44.55Q146.50 45.90 146.47 46.85Q146.45 47.80 146.35 48.45L155.90 48.30Q158.10 48.25 159.70 47.57Q161.30 46.90 162.20 45.20Q163.10 43.50 163.10 40.55L164.80 40.55L164.50 50.30L138.70 50.30L138.70 48.65Q140.60 48.55 141.30 47.77Q142 47 142.07 45.63Q142.15 44.25 142.15 42.50L142.15 20.90Q142.15 19.90 142.20 18.97Q142.25 18.05 142.30 17.30Q141.40 17.35 140.50 17.40Q139.60 17.45 138.70 17.50L138.70 15.30L162.75 15.30L163 24.05L161.35 24.05Q161.35 21.10 160.45 19.57Q159.55 18.05 158.02 17.52Q156.50 17.00 154.60 17.05L150.30 17.15Q148.45 17.20 147.65 17.85Q146.85 18.50 146.67 19.77Q146.50 21.05 146.50 23.10L146.50 31.10L155.90 31.15L155.55 26.85L157.75 26.85L157.75 37.35L156.10 37.35ZM169.80 50.30L169.80 48.65Q171.70 48.55 172.40 47.77Q173.10 47 173.17 45.63Q173.25 44.25 173.25 42.50L173.25 20.90Q173.25 19.90 173.30 18.97Q173.35 18.05 173.40 17.30Q172.50 17.35 171.60 17.40Q170.70 17.45 169.80 17.50L169.80 15.30Q172.60 15.25 175.47 15.20Q178.35 15.15 181.25 15.25Q186.10 15.30 189.07 16.37Q192.05 17.45 193.45 19.42Q194.85 21.40 194.85 24.20Q194.90 26.15 194.13 28.17Q193.35 30.20 191.32 31.80Q189.30 33.40 185.50 34.20Q186.50 34.90 187.25 36Q188 37.10 188.95 38.55L192.35 43.90Q193.20 45.25 194 46.32Q194.80 47.40 195.85 48.02Q196.90 48.65 198.45 48.65L198.45 50.30L192.15 50.30Q190.70 49 189.72 47.70Q188.75 46.40 187.70 44.75L184.35 39.40Q183.70 38.35 182.87 36.97Q182.05 35.60 181.00 34.65Q180.20 34.70 179.32 34.70Q178.45 34.70 177.60 34.65L177.60 44.35Q177.60 45.70 177.57 46.67Q177.55 47.65 177.45 48.30Q178.05 48.25 178.65 48.22Q179.25 48.20 179.85 48.15Q180.45 48.10 181.05 48.10L181.05 50.30L169.80 50.30M180.70 32.80Q183.45 32.70 185.52 31.90Q187.60 31.10 188.80 29.35Q190 27.60 190 24.75Q190 22.85 189.47 21.42Q188.95 20.00 187.85 19.05Q186.75 18.10 185.05 17.62Q183.35 17.15 181.05 17.15Q179.20 17.15 178.47 17.90Q177.75 18.65 177.67 19.97Q177.60 21.30 177.60 23.10L177.60 32.70Q178.40 32.75 179.12 32.80Q179.85 32.85 180.70 32.80ZM228.85 26.45Q228.35 21.75 225.57 19.15Q222.80 16.55 218.45 16.55Q215.80 16.55 213.47 17.67Q211.15 18.80 209.40 20.90Q207.65 23.00 206.65 25.95Q205.65 28.90 205.65 32.60Q205.65 37.30 207.45 40.90Q209.25 44.50 212.30 46.50Q215.35 48.50 219.05 48.50Q222.30 48.50 225.45 47.02Q228.60 45.55 230.60 42.75L231.90 43.80Q229.75 46.75 227.25 48.35Q224.75 49.95 222.27 50.52Q219.80 51.10 217.75 51.10Q214 51.10 210.88 49.75Q207.75 48.40 205.47 45.97Q203.20 43.55 201.97 40.32Q200.75 37.10 200.75 33.35Q200.75 29.80 201.82 26.45Q202.90 23.10 205.05 20.40Q207.20 17.70 210.47 16.10Q213.75 14.50 218.10 14.50Q220.90 14.50 223.40 15.25Q225.90 16.00 228.20 17.55L227.95 14.85L230.65 14.85L230.65 26.45L228.85 26.45ZM233.10 50.30L233.10 48.65Q234.60 48.65 235.40 47.85Q236.20 47.05 236.72 45.65Q237.25 44.25 237.95 42.40L248.25 14.35L249.45 14.35L260.60 42.80Q261 43.85 261.50 45.50Q262 47.15 261.90 48.30Q262.75 48.25 263.60 48.20Q264.45 48.15 265.30 48.10L265.30 50.30L253.85 50.30L253.85 48.65Q255.75 48.60 256.35 47.80Q256.95 47 256.80 45.90Q256.65 44.80 256.30 43.90L254.55 39.20L241.55 39.50L239.80 44.85Q239.45 46.05 239.17 46.75Q238.90 47.45 238.55 48.30Q239.55 48.25 240.52 48.20Q241.50 48.15 242.45 48.10L242.45 50.30L233.10 50.30M242.30 37.35L253.85 37.35L250.30 27.80Q249.75 26.25 249.17 24.72Q248.60 23.20 248.05 21.65L247.95 21.65Q247.45 23.05 246.92 24.45Q246.40 25.85 245.85 27.30L242.30 37.35ZM270.80 51.10Q269.65 51.10 268.77 50.17Q267.90 49.25 267.90 47.90Q267.90 46.55 268.80 45.60Q269.70 44.65 270.85 44.65Q272.10 44.65 272.93 45.60Q273.75 46.55 273.75 47.90Q273.75 49.25 272.85 50.17Q271.95 51.10 270.80 51.10ZM283.10 51.10Q281.95 51.10 281.07 50.17Q280.20 49.25 280.20 47.90Q280.20 46.55 281.10 45.60Q282 44.65 283.15 44.65Q284.40 44.65 285.23 45.60Q286.05 46.55 286.05 47.90Q286.05 49.25 285.15 50.17Q284.25 51.10 283.10 51.10ZM295.40 51.10Q294.25 51.10 293.38 50.17Q292.50 49.25 292.50 47.90Q292.50 46.55 293.40 45.60Q294.30 44.65 295.45 44.65Q296.70 44.65 297.53 45.60Q298.35 46.55 298.35 47.90Q298.35 49.25 297.45 50.17Q296.55 51.10 295.40 51.10Z"/>
        </g>
    </g>
</svg>