<svg xmlns="http://www.w3.org/2000/svg" viewBox="0 0 215 81">
    <g fill="#a58a45">
        <g transform="translate(0, -14)">
            <path d="M2.80 50.30L2.80 48.65Q4.55 48.55 5.47 47.85Q6.40 47.15 6.78 45.90Q7.15 44.65 7.15 42.95L7 19.35L1 23.20L0 21.75L9.75 14.50L11.45 14.50L11.50 44.85Q11.50 45.80 11.47 46.70Q11.45 47.60 11.35 48.30Q12.40 48.25 13.45 48.20Q14.50 48.15 15.55 48.10L15.55 50.30L2.80 50.30Z"/>
        </g>
        <g transform="translate(20, -14)">
            <path d="M11.95 51.10Q7.50 51.10 4.88 49Q2.25 46.90 1.13 43.02Q0 39.15 0 33.85Q0 32.05 0.32 29.57Q0.65 27.10 1.50 24.47Q2.35 21.85 3.88 19.57Q5.40 17.30 7.80 15.90Q10.20 14.50 13.60 14.50Q16.60 14.50 18.55 15.57Q20.50 16.65 21.48 18.12Q22.45 19.60 22.45 20.85Q22.45 21.90 21.93 22.62Q21.40 23.35 20.30 23.45Q19.05 23.50 18.55 22.75Q18.05 22.00 18.05 21.35Q18.05 20.85 18.20 20.30Q18.35 19.75 18.65 19.25Q18.40 18.35 17.07 17.35Q15.75 16.35 13.70 16.35Q11.40 16.35 9.82 17.55Q8.25 18.75 7.28 20.70Q6.30 22.65 5.75 24.87Q5.20 27.10 4.97 29.15Q4.75 31.20 4.70 32.65Q5.55 31.55 6.75 30.60Q7.95 29.65 9.55 29.05Q11.15 28.45 13.10 28.45Q16.10 28.45 18.13 29.47Q20.15 30.50 21.38 32.15Q22.60 33.80 23.13 35.77Q23.65 37.75 23.65 39.65Q23.65 42.75 22.13 45.38Q20.60 48 17.95 49.55Q15.30 51.10 11.95 51.10M12.05 49.15Q14.40 49.15 15.85 47.97Q17.30 46.80 17.95 44.88Q18.60 42.95 18.60 40.75Q18.60 39.35 18.35 37.63Q18.10 35.90 17.43 34.32Q16.75 32.75 15.45 31.72Q14.15 30.70 12.05 30.70Q10.50 30.70 9 31.47Q7.50 32.25 6.38 33.50Q5.25 34.75 4.75 36.20Q4.90 38.60 5.32 40.90Q5.75 43.20 6.57 45.05Q7.40 46.90 8.75 48.02Q10.10 49.15 12.05 49.15Z"/>
        </g>
        <g transform="translate(60, 11) scale(0.5)">
            <path d="M6.75 50.85Q4.45 50.85 2.95 49.57Q1.45 48.30 0.72 46.13Q0 43.95 0 41.35Q0 36.45 1.63 32.72Q3.25 29.00 6.50 26.87Q9.75 24.75 14.55 24.75Q15.30 24.75 16.00 24.80Q16.70 24.85 17.35 24.95Q17.55 23.15 17.78 21.32Q18.00 19.50 18.23 17.97Q18.45 16.45 18.65 15.70Q17.75 15.75 16.83 15.80Q15.90 15.85 15.00 15.90L15.20 13.90Q17.40 13.90 18.63 13.70Q19.85 13.50 20.50 13.20Q21.15 12.90 21.55 12.55L23.00 12.55Q22.55 15.25 22.08 19.12Q21.60 23.00 20.90 28.95Q20.55 32.15 20.23 35.32Q19.90 38.50 19.68 41.20Q19.45 43.90 19.45 45.70Q19.45 46.65 19.65 47.50Q19.85 48.35 20.80 48.35Q21.65 48.35 22.65 47.25Q23.65 46.15 24.40 43.50L25.85 43.80Q25.70 44.70 25.23 45.88Q24.75 47.05 23.95 48.20Q23.15 49.35 22.00 50.10Q20.85 50.85 19.35 50.85Q17.35 50.85 16.43 49.60Q15.50 48.35 15.50 46.35Q15.50 44.90 15.70 43.32Q15.90 41.75 16.25 39.90L16.10 39.90Q14.75 44.45 13.13 46.82Q11.50 49.20 9.88 50.02Q8.25 50.85 6.75 50.85M7.80 48.50Q9.40 48.50 10.97 46.70Q12.55 44.90 13.85 42Q15.15 39.10 15.85 35.85Q16.25 34.10 16.53 31.95Q16.80 29.80 17.10 27.05Q16.30 26.75 15.42 26.65Q14.55 26.55 13.70 26.55Q11.60 26.55 10.03 27.40Q8.45 28.25 7.35 29.70Q6.25 31.15 5.58 32.95Q4.90 34.75 4.60 36.70Q4.30 38.65 4.30 40.50Q4.30 43.90 5.08 46.20Q5.85 48.50 7.80 48.50ZM39.95 24.75Q41.75 24.75 43.35 25.30Q44.95 25.85 45.95 27.10Q46.95 28.35 46.95 30.50Q46.95 32.55 45.55 34.05Q44.15 35.55 41.90 36.52Q39.65 37.50 37.10 38.10Q34.55 38.70 32.20 38.95Q32.20 42.05 32.83 44.15Q33.45 46.25 34.70 47.30Q35.95 48.35 37.90 48.35Q39.35 48.35 40.83 47.70Q42.30 47.05 43.65 45.72Q45 44.40 46.10 42.30L47.75 43.25Q46.35 45.85 44.75 47.55Q43.15 49.25 41.25 50.05Q39.35 50.85 37.05 50.85Q32.30 50.85 30.05 47.88Q27.80 44.90 27.80 40.05Q27.80 37.15 28.55 34.40Q29.30 31.65 30.80 29.47Q32.30 27.30 34.60 26.02Q36.90 24.75 39.95 24.75M39.25 26.45Q36.95 26.45 35.48 28.00Q34 29.55 33.23 32.00Q32.45 34.45 32.25 37.15Q34.90 36.80 37.30 35.90Q39.70 35 41.25 33.57Q42.80 32.15 42.80 30.25Q42.80 28.65 41.92 27.55Q41.05 26.45 39.25 26.45Z"/>
        </g>
        <g transform="translate(30, 30)" >
            <path d="M19.25 50.80L10.60 27.20Q10.15 25.90 9.83 25.02Q9.50 24.15 9.18 23.17Q8.85 22.20 8.40 20.65L8.30 20.65Q8.20 23.45 8.03 25.90Q7.85 28.35 7.65 30.55L6.35 44.05Q6.25 45.15 6.13 46.25Q6 47.35 5.85 48.30Q6.80 48.25 7.75 48.20Q8.70 48.15 9.65 48.10L9.50 50.30L0 50.30L0.10 48.65Q1.65 48.60 2.38 47.97Q3.10 47.35 3.38 46.30Q3.65 45.25 3.75 44.05L6 21.55Q6.10 20.50 6.23 19.42Q6.35 18.35 6.45 17.30Q5.55 17.35 4.65 17.37Q3.75 17.40 2.85 17.45L2.95 15.30L10.40 15.30L18.10 35.80Q18.85 37.85 19.65 39.95Q20.45 42.05 21.25 44.20L21.35 44.20Q22 42.85 22.83 40.97Q23.65 39.10 24.25 37.75Q25.85 34.15 27.70 30.32Q29.55 26.50 31.40 22.67Q33.25 18.85 34.80 15.30L42 15.30L41.90 16.95Q40.65 16.90 39.83 17.42Q39 17.95 38.60 19.15Q38.20 20.35 38.20 22.40L38.35 45.15Q38.35 46.05 38.33 46.82Q38.30 47.60 38.25 48.30Q39.20 48.25 40.10 48.20Q41 48.15 41.95 48.10L41.80 50.30L30.80 50.30L30.90 48.65Q32.30 48.55 33.05 48.02Q33.80 47.50 34.10 46.25Q34.40 45 34.40 42.70L34.40 25.60Q34.40 24.85 34.40 24.15Q34.40 23.45 34.43 22.72Q34.45 22.00 34.45 21.30L34.35 21.30L32.60 25.15L20.70 50.80L19.25 50.80ZM74.55 14.35L84.10 42.80Q84.50 43.85 84.88 45.50Q85.25 47.15 85.15 48.30L88.40 48.10L88.30 50.30L77.45 50.30L77.50 48.65Q79.40 48.60 80 47.80Q80.60 47 80.50 45.90Q80.40 44.80 80.10 43.90L78.65 39.20L65.85 39.50L63.85 44.85Q63.40 46.05 63.08 46.75Q62.75 47.45 62.30 48.30L66.05 48.10L65.95 50.30L56.80 50.30L56.85 48.65Q58.10 48.60 59 47.82Q59.90 47.05 60.65 45.65Q61.40 44.25 62.15 42.40L73.45 14.35L74.55 14.35M72.85 21.30Q72.30 22.70 71.75 24.10Q71.20 25.50 70.65 26.90L66.65 37.35L78.10 37.35L74.85 27.35Q74.35 25.85 73.88 24.35Q73.40 22.85 72.85 21.30ZM112.55 50.30L112.65 48.65Q114.55 48.55 115.28 47.75Q116 46.95 116.15 45.57Q116.30 44.20 116.35 42.50L116.65 36.80L108.75 23.05Q107.55 21.05 107 19.70Q106.45 18.35 106.35 17.40Q105.55 17.45 104.80 17.45Q104.05 17.45 103.25 17.50L103.35 15.30L116.05 15.30L115.95 16.95Q113.65 16.95 112.73 17.65Q111.80 18.35 111.95 19.57Q112.10 20.80 113 22.40Q113.85 23.80 114.98 25.72Q116.10 27.65 117.10 29.30Q117.50 29.95 117.90 30.60Q118.30 31.25 118.73 31.92Q119.15 32.60 119.55 33.25L119.60 33.25Q120.30 32.05 120.93 30.95Q121.55 29.85 122.15 28.85Q123.30 26.85 124.43 25.00Q125.55 23.15 126.70 21.15Q127 20.65 127.40 19.97Q127.80 19.30 128.30 18.57Q128.80 17.85 129.30 17.35Q128.35 17.40 127.35 17.42Q126.35 17.45 125.35 17.50L125.45 15.30L135.65 15.30L135.55 16.95Q133.10 17.10 131.43 18.65Q129.75 20.20 127.85 23.40L120.90 35.30L120.40 44.35Q120.35 45.70 120.25 46.67Q120.15 47.65 120.05 48.30Q120.75 48.25 121.45 48.22Q122.15 48.20 122.83 48.15Q123.50 48.10 124.20 48.10L124.10 50.30L112.55 50.30ZM168.05 14.50Q172.45 14.50 175.60 16.05Q178.75 17.60 180.78 20.12Q182.80 22.65 183.75 25.72Q184.70 28.80 184.70 31.85Q184.70 35.05 183.58 38.42Q182.45 41.80 180.20 44.67Q177.95 47.55 174.53 49.32Q171.10 51.10 166.50 51.10Q162.10 51.10 158.95 49.57Q155.80 48.05 153.78 45.55Q151.75 43.05 150.80 40.02Q149.85 37 149.85 33.95Q149.85 30.10 151.13 26.60Q152.40 23.10 154.80 20.37Q157.20 17.65 160.55 16.07Q163.90 14.50 168.05 14.50M167.80 16.50Q164.65 16.50 162.22 17.95Q159.80 19.40 158.13 21.80Q156.45 24.20 155.55 27.07Q154.65 29.95 154.65 32.85Q154.60 35.40 155.25 38.22Q155.90 41.05 157.33 43.50Q158.75 45.95 161.08 47.50Q163.40 49.05 166.75 49.05Q170 49.05 172.45 47.60Q174.90 46.15 176.55 43.72Q178.20 41.30 179.05 38.40Q179.90 35.50 179.90 32.65Q179.90 29.70 179.13 26.82Q178.35 23.95 176.83 21.62Q175.30 19.30 173.05 17.90Q170.80 16.50 167.80 16.50Z"/>
        </g>
    </g>
</svg>