<svg xmlns="http://www.w3.org/2000/svg" viewBox="0 0 400 300">
    <g transform="translate(-40, 60)">
        <path fill="#a58a45" transform="translate(185, -40) scale(1)" d="M0 50.30L0 48.65Q1.50 48.65 2.30 47.85Q3.10 47.05 3.63 45.65Q4.15 44.25 4.85 42.40L15.15 14.35L16.35 14.35L27.50 42.80Q27.90 43.85 28.40 45.50Q28.90 47.15 28.80 48.30Q29.65 48.25 30.50 48.20Q31.35 48.15 32.20 48.10L32.20 50.30L20.75 50.30L20.75 48.65Q22.65 48.60 23.25 47.80Q23.85 47 23.70 45.90Q23.55 44.80 23.20 43.90L21.45 39.20L8.45 39.50L6.70 44.85Q6.35 46.05 6.08 46.75Q5.80 47.45 5.45 48.30Q6.45 48.25 7.42 48.20Q8.40 48.15 9.35 48.10L9.35 50.30L0 50.30M9.20 37.35L20.75 37.35L17.20 27.80Q16.65 26.25 16.07 24.72Q15.50 23.20 14.95 21.65L14.85 21.65Q14.35 23.05 13.83 24.45Q13.30 25.85 12.75 27.30L9.20 37.35ZM61.70 51.10L41.75 24.30Q41.30 23.70 40.88 23.12Q40.45 22.55 40 21.95L39.95 21.95L40.10 43.35Q40.10 44.60 40.10 45.85Q40.10 47.10 40 48.30Q40.90 48.25 41.80 48.20Q42.70 48.15 43.60 48.10L43.60 50.30L34.45 50.30L34.45 48.65Q36 48.65 36.68 47.97Q37.35 47.30 37.55 46.38Q37.75 45.45 37.75 44.70L37.80 20.65Q37.80 19.80 37.80 18.95Q37.80 18.10 37.80 17.30Q37 17.35 36.15 17.40Q35.30 17.45 34.45 17.50L34.45 15.30L40.40 15.30L59.15 40.40Q59.80 41.25 60.43 42.10Q61.05 42.95 61.70 43.80L61.75 43.80L61.80 20.90Q61.80 19.90 61.85 18.97Q61.90 18.05 61.95 17.30Q61.05 17.35 60.15 17.40Q59.25 17.45 58.35 17.50L58.35 15.30L67.55 15.30L67.55 16.95Q65.70 17.00 65 17.80Q64.30 18.60 64.25 19.95Q64.20 21.30 64.20 23.10L64.10 51.10L61.70 51.10ZM69.40 50.30L69.40 48.65Q70.90 48.65 71.70 47.85Q72.50 47.05 73.03 45.65Q73.55 44.25 74.25 42.40L84.55 14.35L85.75 14.35L96.90 42.80Q97.30 43.85 97.80 45.50Q98.30 47.15 98.20 48.30Q99.05 48.25 99.90 48.20Q100.75 48.15 101.60 48.10L101.60 50.30L90.15 50.30L90.15 48.65Q92.05 48.60 92.65 47.80Q93.25 47 93.10 45.90Q92.95 44.80 92.60 43.90L90.85 39.20L77.85 39.50L76.10 44.85Q75.75 46.05 75.48 46.75Q75.20 47.45 74.85 48.30Q75.85 48.25 76.83 48.20Q77.80 48.15 78.75 48.10L78.75 50.30L69.40 50.30M78.60 37.35L90.15 37.35L86.60 27.80Q86.05 26.25 85.48 24.72Q84.90 23.20 84.35 21.65L84.25 21.65Q83.75 23.05 83.23 24.45Q82.70 25.85 82.15 27.30L78.60 37.35Z"/>
        <line transform="translate(310, 70)" x1="0" y1="10" x2="100" y2="10" stroke="#a58a45" stroke-width="2"/>
        <line transform="translate(70, 70)" x1="0" y1="10" x2="100" y2="10" stroke="#a58a45" stroke-width="2"/>
        <path fill="#a58a45" transform="translate(185, 0) scale(1)" d="M75.17,50.91c-.13.61-.46,2.16-.99,4.65s-.91,4.25-1.15,5.27c-.24,1.02-.58,2.51-1.03,4.45-.45,1.95-.88,3.69-1.3,5.22-.42,1.54-.87,3.06-1.35,4.57-.69,2.18-1.6,4.65-2.75,7.42,4.08,4.41,6.85,9.48,8.3,15.2,1.47,5.74,1.63,11.71.49,17.91-1.14,6.19-3.42,11.71-6.81,16.56-1.7,2.42-3.63,4.54-5.8,6.36-2.17,1.81-4.44,2.92-6.83,3.32-2.58.42-4.64-.11-6.18-1.57-.88-.84-1.41-1.82-1.6-2.93-.19-1.12,0-2.21.54-3.28.32-.61.83-.88,1.5-.82.68.07,1.16.36,1.46.87.3.51.28,1.07-.04,1.66-.59.9-.62,1.85-.1,2.85.53,1,1.29,1.64,2.3,1.9,2.2.61,4.94-.45,8.25-3.18,1.97-1.58,3.74-3.53,5.33-5.84,2.9-4.22,4.95-9.15,6.16-14.8.73-3.74,1-7.42.83-11.04-.17-3.62-.92-7.21-2.23-10.76-1.32-3.56-3.16-6.75-5.52-9.58-.19-.23-.46-.53-.8-.92-1.13,2.63-2.49,5.5-4.09,8.59-5.33,10.27-12.09,18.92-20.3,25.97-4.45,3.8-8.97,6.84-13.57,9.13-5.74,2.88-10.78,4.14-15.12,3.78-2.62-.21-4.93-1.02-6.94-2.43-2.01-1.41-3.5-3.31-4.45-5.7-1.76-4.33-1.81-9.71-.17-16.12,1.39-5.42,3.85-10.53,7.36-15.32,3.51-4.79,7.65-8.89,12.43-12.28,3.32-2.35,6.88-4.18,10.66-5.48,3.79-1.31,7.71-2.01,11.77-2.1,4.06-.1,7.99.61,11.81,2.12,2.86,1.11,5.59,2.74,8.19,4.9,1.24-3.38,2.46-7.34,3.66-11.88,1.16-4.47,2.78-11.2,4.84-20.21-.13.38-.33.94-.59,1.69-.26.74-.44,1.31-.56,1.69-1.26,3.7-2.26,6.46-3.01,8.27-.04.08-.18.42-.43,1.02-.25.6-.42,1.01-.52,1.23-.1.22-.28.62-.56,1.19-.28.57-.51.99-.7,1.25-.19.26-.45.59-.77,1-.32.41-.64.71-.93.89-.3.18-.64.34-1.04.49-.4.14-.81.2-1.23.19-.04,0-.08-.01-.13-.04-.05-.03-.08-.04-.1-.04-.63-.02-1.21-.29-1.73-.82-.52-.52-.92-1.13-1.19-1.82-.55-1.43-.72-3.37-.49-5.81.5-5.1,2.01-10.83,4.55-17.21.27-.67.72-1.07,1.36-1.2.64-.13,1.19.01,1.65.44.46.43.61,1.01.46,1.73-.42,2-1.16,4.91-2.23,8.7-1.07,3.8-1.66,5.92-1.77,6.36-.63,2.37-.94,4.18-.92,5.44,0,.67.08,1.16.23,1.49.1.19.34.45.74.77.06,0,.1,0,.11.03.59.27,1.42-.4,2.49-2,.84-1.2,1.8-3.09,2.89-5.67.69-1.64,1.65-4.25,2.89-7.82,1.24-3.57,2.25-6.25,3.04-8.04v-.03l.03-.06s.04-.09.07-.14.04-.1.04-.11l.03-.03c.25-.63.7-.98,1.35-1.06.65-.08,1.22.12,1.7.59.49.47.65,1.06.5,1.79-.23,1.01-.56,2.54-1,4.6-.44,2.05-.76,3.59-.97,4.62ZM50.06,105.13c4.12-5.61,8.08-12.93,11.88-21.96.17-.4.41-1,.72-1.8-3.44-2.82-7.33-4.77-11.68-5.84-4.35-1.07-8.79-1.17-13.31-.31-5.13.97-9.97,3.01-14.5,6.1-4.53,3.09-8.48,6.87-11.84,11.34-3.45,4.58-5.91,9.34-7.36,14.29-1.68,5.8-1.85,10.77-.51,14.92.76,2.39,2.1,4.22,4.02,5.5,1.92,1.28,4.16,1.9,6.71,1.86,3.97-.04,8.58-1.5,13.83-4.38,8.4-4.6,15.75-11.17,22.05-19.7Z"></path>
        <path fill="#a58a45" transform="translate(100, 150) scale(1)"  d="M0 50.30L0 48.65Q1.90 48.55 2.60 47.77Q3.30 47 3.38 45.63Q3.45 44.25 3.45 42.50L3.45 20.90Q3.45 19.90 3.50 18.97Q3.55 18.05 3.60 17.30Q2.70 17.35 1.80 17.40Q0.90 17.45 0 17.50L0 15.30L23.20 15.30L23.45 24.05L21.80 24.05Q21.80 21.10 20.85 19.57Q19.90 18.05 18.35 17.52Q16.80 17.00 14.90 17.05L11.25 17.15Q9.40 17.20 8.70 18.02Q8 18.85 7.90 20.20Q7.80 21.55 7.80 23.30L7.80 31.90L16.50 31.95L16.15 27.60L18.35 27.60L18.35 38.15L16.75 38.15Q16.75 35.90 16.13 34.95Q15.50 34 14.20 33.80Q12.90 33.60 10.80 33.70L7.80 33.85L7.80 44.35Q7.80 45.70 7.78 46.67Q7.75 47.65 7.65 48.30Q8.50 48.25 9.35 48.22Q10.20 48.20 11.05 48.15Q11.90 48.10 12.75 48.10L12.75 50.30L0 50.30ZM27.40 50.30L27.40 48.65Q29.30 48.55 30.00 47.77Q30.70 47 30.78 45.63Q30.85 44.25 30.85 42.50L30.85 20.90Q30.85 19.90 30.90 18.97Q30.95 18.05 31.00 17.30Q30.10 17.35 29.20 17.40Q28.30 17.45 27.40 17.50L27.40 15.30Q30.20 15.25 33.08 15.20Q35.95 15.15 38.85 15.25Q43.70 15.30 46.68 16.37Q49.65 17.45 51.05 19.42Q52.45 21.40 52.45 24.20Q52.50 26.15 51.73 28.17Q50.95 30.20 48.93 31.80Q46.90 33.40 43.10 34.20Q44.10 34.90 44.85 36Q45.60 37.10 46.55 38.55L49.95 43.90Q50.80 45.25 51.60 46.32Q52.40 47.40 53.45 48.02Q54.50 48.65 56.05 48.65L56.05 50.30L49.75 50.30Q48.30 49 47.33 47.70Q46.35 46.40 45.30 44.75L41.95 39.40Q41.30 38.35 40.48 36.97Q39.65 35.60 38.60 34.65Q37.80 34.70 36.93 34.70Q36.05 34.70 35.20 34.65L35.20 44.35Q35.20 45.70 35.18 46.67Q35.15 47.65 35.05 48.30Q35.65 48.25 36.25 48.22Q36.85 48.20 37.45 48.15Q38.05 48.10 38.65 48.10L38.65 50.30L27.40 50.30M38.30 32.80Q41.05 32.70 43.13 31.90Q45.20 31.10 46.40 29.35Q47.60 27.60 47.60 24.75Q47.60 22.85 47.08 21.42Q46.55 20.00 45.45 19.05Q44.35 18.10 42.65 17.62Q40.95 17.15 38.65 17.15Q36.80 17.15 36.08 17.90Q35.35 18.65 35.28 19.97Q35.20 21.30 35.20 23.10L35.20 32.70Q36 32.75 36.73 32.80Q37.45 32.85 38.30 32.80ZM55.75 50.30L55.75 48.65Q57.25 48.65 58.05 47.85Q58.85 47.05 59.38 45.65Q59.90 44.25 60.60 42.40L70.90 14.35L72.10 14.35L83.25 42.80Q83.65 43.85 84.15 45.50Q84.65 47.15 84.55 48.30Q85.40 48.25 86.25 48.20Q87.10 48.15 87.95 48.10L87.95 50.30L76.50 50.30L76.50 48.65Q78.40 48.60 79 47.80Q79.60 47 79.45 45.90Q79.30 44.80 78.95 43.90L77.20 39.20L64.20 39.50L62.45 44.85Q62.10 46.05 61.83 46.75Q61.55 47.45 61.20 48.30Q62.20 48.25 63.18 48.20Q64.15 48.15 65.10 48.10L65.10 50.30L55.75 50.30M64.95 37.35L76.50 37.35L72.95 27.80Q72.40 26.25 71.83 24.72Q71.25 23.20 70.70 21.65L70.60 21.65Q70.10 23.05 69.58 24.45Q69.05 25.85 68.50 27.30L64.95 37.35ZM117.45 51.10L97.50 24.30Q97.05 23.70 96.63 23.12Q96.20 22.55 95.75 21.95L95.70 21.95L95.85 43.35Q95.85 44.60 95.85 45.85Q95.85 47.10 95.75 48.30Q96.65 48.25 97.55 48.20Q98.45 48.15 99.35 48.10L99.35 50.30L90.20 50.30L90.20 48.65Q91.75 48.65 92.43 47.97Q93.10 47.30 93.30 46.38Q93.50 45.45 93.50 44.70L93.55 20.65Q93.55 19.80 93.55 18.95Q93.55 18.10 93.55 17.30Q92.75 17.35 91.90 17.40Q91.05 17.45 90.20 17.50L90.20 15.30L96.15 15.30L114.90 40.40Q115.55 41.25 116.18 42.10Q116.80 42.95 117.45 43.80L117.50 43.80L117.55 20.90Q117.55 19.90 117.60 18.97Q117.65 18.05 117.70 17.30Q116.80 17.35 115.90 17.40Q115.00 17.45 114.10 17.50L114.10 15.30L123.30 15.30L123.30 16.95Q121.45 17.00 120.75 17.80Q120.05 18.60 120 19.95Q119.95 21.30 119.95 23.10L119.85 51.10L117.45 51.10ZM155.85 26.45Q155.35 21.75 152.58 19.15Q149.80 16.55 145.45 16.55Q142.80 16.55 140.48 17.67Q138.15 18.80 136.40 20.90Q134.65 23.00 133.65 25.95Q132.65 28.90 132.65 32.60Q132.65 37.30 134.45 40.90Q136.25 44.50 139.30 46.50Q142.35 48.50 146.05 48.50Q149.30 48.50 152.45 47.02Q155.60 45.55 157.60 42.75L158.90 43.80Q156.75 46.75 154.25 48.35Q151.75 49.95 149.28 50.52Q146.80 51.10 144.75 51.10Q141.00 51.10 137.88 49.75Q134.75 48.40 132.48 45.97Q130.20 43.55 128.98 40.32Q127.75 37.10 127.75 33.35Q127.75 29.80 128.83 26.45Q129.90 23.10 132.05 20.40Q134.20 17.70 137.48 16.10Q140.75 14.50 145.10 14.50Q147.90 14.50 150.40 15.25Q152.90 16.00 155.20 17.55L154.95 14.85L157.65 14.85L157.65 26.45L155.85 26.45ZM174.40 16.95Q172.55 17.00 171.83 17.80Q171.10 18.60 171.03 19.95Q170.95 21.30 170.95 23.10L170.95 44.35Q170.95 45.70 170.93 46.67Q170.90 47.65 170.80 48.30Q171.70 48.25 172.60 48.20Q173.50 48.15 174.40 48.10L174.40 50.30L163.15 50.30L163.15 48.65Q165.05 48.55 165.75 47.77Q166.45 47 166.53 45.63Q166.60 44.25 166.60 42.50L166.60 20.90Q166.60 19.90 166.65 18.97Q166.70 18.05 166.75 17.30Q165.85 17.35 164.95 17.40Q164.05 17.45 163.15 17.50L163.15 15.30L174.40 15.30L174.40 16.95ZM199.55 25.90Q199.40 23.50 198.40 21.35Q197.40 19.20 195.50 17.85Q193.60 16.50 190.65 16.50Q187.55 16.50 185.90 18.25Q184.25 20.00 184.25 22.35Q184.25 24.45 185.45 25.87Q186.65 27.30 188.58 28.37Q190.50 29.45 192.65 30.45Q194.55 31.30 196.45 32.27Q198.35 33.25 199.90 34.50Q201.45 35.75 202.38 37.47Q203.30 39.20 203.30 41.60Q203.30 44.35 201.93 46.50Q200.55 48.65 197.95 49.88Q195.35 51.10 191.60 51.10Q189.35 51.10 186.95 50.45Q184.55 49.80 182.70 48.55L182.95 50.70L180.35 50.70L180.05 40.05L182.00 40.05Q182.25 44.45 185.05 46.72Q187.85 49 191.80 49Q193.75 49 195.40 48.27Q197.05 47.55 198.03 46.15Q199.00 44.75 199.00 42.75Q199.00 40.50 197.80 39Q196.60 37.50 194.70 36.40Q192.80 35.30 190.65 34.30Q188.75 33.45 186.90 32.50Q185.05 31.55 183.53 30.32Q182.00 29.10 181.08 27.40Q180.15 25.70 180.15 23.30Q180.15 22.00 180.60 20.50Q181.05 19.00 182.18 17.62Q183.30 16.25 185.28 15.37Q187.25 14.50 190.30 14.50Q192.20 14.50 194.58 15.02Q196.95 15.55 199.00 17.05L198.80 14.90L201.35 14.90L201.35 25.90L199.55 25.90ZM235.90 26.45Q235.40 21.75 232.63 19.15Q229.85 16.55 225.50 16.55Q222.85 16.55 220.53 17.67Q218.20 18.80 216.45 20.90Q214.70 23.00 213.70 25.95Q212.70 28.90 212.70 32.60Q212.70 37.30 214.50 40.90Q216.30 44.50 219.35 46.50Q222.40 48.50 226.10 48.50Q229.35 48.50 232.50 47.02Q235.65 45.55 237.65 42.75L238.95 43.80Q236.80 46.75 234.30 48.35Q231.80 49.95 229.33 50.52Q226.85 51.10 224.80 51.10Q221.05 51.10 217.93 49.75Q214.80 48.40 212.53 45.97Q210.25 43.55 209.03 40.32Q207.80 37.10 207.80 33.35Q207.80 29.80 208.88 26.45Q209.95 23.10 212.10 20.40Q214.25 17.70 217.53 16.10Q220.80 14.50 225.15 14.50Q227.95 14.50 230.45 15.25Q232.95 16.00 235.25 17.55L235.00 14.85L237.70 14.85L237.70 26.45L235.90 26.45ZM260.55 51.10Q255.80 51.10 252.40 49.50Q249.00 47.90 246.88 45.22Q244.75 42.55 243.75 39.30Q242.75 36.05 242.75 32.80Q242.75 29.65 243.80 26.42Q244.85 23.20 247.03 20.50Q249.20 17.80 252.48 16.15Q255.75 14.50 260.15 14.50Q264.75 14.50 268.10 16.15Q271.45 17.80 273.63 20.52Q275.80 23.25 276.88 26.45Q277.95 29.65 277.95 32.80Q277.95 35.90 276.90 39.13Q275.85 42.35 273.68 45.07Q271.50 47.80 268.25 49.45Q265.00 51.10 260.55 51.10M260.65 49.05Q263.75 49.05 266.05 47.72Q268.35 46.40 269.88 44.17Q271.40 41.95 272.18 39.22Q272.95 36.50 272.95 33.75Q272.95 30.65 272.10 27.60Q271.25 24.55 269.60 22.05Q267.95 19.55 265.53 18.02Q263.10 16.50 260.00 16.50Q256.90 16.50 254.58 17.85Q252.25 19.20 250.73 21.42Q249.20 23.65 248.43 26.37Q247.65 29.10 247.65 31.90Q247.65 34.65 248.43 37.65Q249.20 40.65 250.80 43.25Q252.40 45.85 254.85 47.45Q257.30 49.05 260.65 49.05Z"/>
    </g>
</svg>
