<svg xmlns="http://www.w3.org/2000/svg" viewBox="0 0 379 82">
    <g transform="translate(0, -13)" fill="#a58a45">
        <path d="M0 50.30L0 48.65Q1.90 48.55 2.60 47.77Q3.30 47 3.38 45.63Q3.45 44.25 3.45 42.50L3.45 20.90Q3.45 19.90 3.50 18.97Q3.55 18.05 3.60 17.30Q2.70 17.35 1.80 17.40Q0.90 17.45 0 17.50L0 15.30L11.25 15.30L11.25 16.95Q9.40 17.00 8.68 17.80Q7.95 18.60 7.88 19.95Q7.80 21.30 7.80 23.10L7.80 31.40L25.70 31.40L25.70 20.90Q25.70 19.90 25.75 18.97Q25.80 18.05 25.85 17.30Q24.95 17.35 24.05 17.40Q23.15 17.45 22.25 17.50L22.25 15.30L33.50 15.30L33.50 16.95Q31.65 17.00 30.93 17.80Q30.20 18.60 30.13 19.95Q30.05 21.30 30.05 23.10L30.05 44.35Q30.05 45.70 30.02 46.67Q30 47.65 29.90 48.30Q30.80 48.25 31.70 48.20Q32.60 48.15 33.50 48.10L33.50 50.30L22.25 50.30L22.25 48.65Q24.15 48.55 24.85 47.77Q25.55 47 25.63 45.63Q25.70 44.25 25.70 42.50L25.70 33.40L7.80 33.60L7.80 44.35Q7.80 45.70 7.78 46.67Q7.75 47.65 7.65 48.30Q8.55 48.25 9.45 48.20Q10.35 48.15 11.25 48.10L11.25 50.30L0 50.30ZM56.35 51.10Q51.60 51.10 48.20 49.50Q44.80 47.90 42.67 45.22Q40.55 42.55 39.55 39.30Q38.55 36.05 38.55 32.80Q38.55 29.65 39.60 26.42Q40.65 23.20 42.83 20.50Q45 17.80 48.27 16.15Q51.55 14.50 55.95 14.50Q60.55 14.50 63.90 16.15Q67.25 17.80 69.43 20.52Q71.60 23.25 72.68 26.45Q73.75 29.65 73.75 32.80Q73.75 35.90 72.70 39.13Q71.65 42.35 69.47 45.07Q67.30 47.80 64.05 49.45Q60.80 51.10 56.35 51.10M56.45 49.05Q59.55 49.05 61.85 47.72Q64.15 46.40 65.67 44.17Q67.20 41.95 67.97 39.22Q68.75 36.50 68.75 33.75Q68.75 30.65 67.90 27.60Q67.05 24.55 65.40 22.05Q63.75 19.55 61.33 18.02Q58.90 16.50 55.80 16.50Q52.70 16.50 50.38 17.85Q48.05 19.20 46.52 21.42Q45 23.65 44.23 26.37Q43.45 29.10 43.45 31.90Q43.45 34.65 44.23 37.65Q45 40.65 46.60 43.25Q48.20 45.85 50.65 47.45Q53.10 49.05 56.45 49.05ZM78.70 50.30L78.70 48.65Q80.60 48.55 81.30 47.77Q82 47 82.08 45.63Q82.15 44.25 82.15 42.50L82.15 20.90Q82.15 19.90 82.20 18.97Q82.25 18.05 82.30 17.30Q81.40 17.35 80.50 17.40Q79.60 17.45 78.70 17.50L78.70 15.30Q81.50 15.25 84.38 15.20Q87.25 15.15 90.15 15.25Q95 15.30 97.98 16.37Q100.95 17.45 102.35 19.42Q103.75 21.40 103.75 24.20Q103.80 26.15 103.03 28.17Q102.25 30.20 100.23 31.80Q98.20 33.40 94.40 34.20Q95.40 34.90 96.15 36Q96.90 37.10 97.85 38.55L101.25 43.90Q102.10 45.25 102.90 46.32Q103.70 47.40 104.75 48.02Q105.80 48.65 107.35 48.65L107.35 50.30L101.05 50.30Q99.60 49 98.63 47.70Q97.65 46.40 96.60 44.75L93.25 39.40Q92.60 38.35 91.78 36.97Q90.95 35.60 89.90 34.65Q89.10 34.70 88.23 34.70Q87.35 34.70 86.50 34.65L86.50 44.35Q86.50 45.70 86.48 46.67Q86.45 47.65 86.35 48.30Q86.95 48.25 87.55 48.22Q88.15 48.20 88.75 48.15Q89.35 48.10 89.95 48.10L89.95 50.30L78.70 50.30M89.60 32.80Q92.35 32.70 94.43 31.90Q96.50 31.10 97.70 29.35Q98.90 27.60 98.90 24.75Q98.90 22.85 98.38 21.42Q97.85 20.00 96.75 19.05Q95.65 18.10 93.95 17.62Q92.25 17.15 89.95 17.15Q88.10 17.15 87.38 17.90Q86.65 18.65 86.58 19.97Q86.50 21.30 86.50 23.10L86.50 32.70Q87.30 32.75 88.03 32.80Q88.75 32.85 89.60 32.80ZM107.05 50.30L107.05 48.65Q108.55 48.65 109.35 47.85Q110.15 47.05 110.68 45.65Q111.20 44.25 111.90 42.40L122.20 14.35L123.40 14.35L134.55 42.80Q134.95 43.85 135.45 45.50Q135.95 47.15 135.85 48.30Q136.70 48.25 137.55 48.20Q138.40 48.15 139.25 48.10L139.25 50.30L127.80 50.30L127.80 48.65Q129.70 48.60 130.30 47.80Q130.90 47 130.75 45.90Q130.60 44.80 130.25 43.90L128.50 39.20L115.50 39.50L113.75 44.85Q113.40 46.05 113.13 46.75Q112.85 47.45 112.50 48.30Q113.50 48.25 114.48 48.20Q115.45 48.15 116.40 48.10L116.40 50.30L107.05 50.30M116.25 37.35L127.80 37.35L124.25 27.80Q123.70 26.25 123.13 24.72Q122.55 23.20 122.00 21.65L121.90 21.65Q121.40 23.05 120.88 24.45Q120.35 25.85 119.80 27.30L116.25 37.35ZM141.40 50.30L141.40 48.65Q143.30 48.55 144 47.77Q144.70 47 144.78 45.63Q144.85 44.25 144.85 42.50L144.85 20.90Q144.85 19.90 144.90 18.97Q144.95 18.05 145 17.30Q144.10 17.35 143.20 17.40Q142.30 17.45 141.40 17.50L141.40 15.30Q144.20 15.25 147.08 15.20Q149.95 15.15 152.85 15.25Q157.70 15.30 160.68 16.37Q163.65 17.45 165.05 19.42Q166.45 21.40 166.45 24.20Q166.50 26.15 165.73 28.17Q164.95 30.20 162.93 31.80Q160.90 33.40 157.10 34.20Q158.10 34.90 158.85 36Q159.60 37.10 160.55 38.55L163.95 43.90Q164.80 45.25 165.60 46.32Q166.40 47.40 167.45 48.02Q168.50 48.65 170.05 48.65L170.05 50.30L163.75 50.30Q162.30 49 161.33 47.70Q160.35 46.40 159.30 44.75L155.95 39.40Q155.30 38.35 154.47 36.97Q153.65 35.60 152.60 34.65Q151.80 34.70 150.93 34.70Q150.05 34.70 149.20 34.65L149.20 44.35Q149.20 45.70 149.18 46.67Q149.15 47.65 149.05 48.30Q149.65 48.25 150.25 48.22Q150.85 48.20 151.45 48.15Q152.05 48.10 152.65 48.10L152.65 50.30L141.40 50.30M152.30 32.80Q155.05 32.70 157.13 31.90Q159.20 31.10 160.40 29.35Q161.60 27.60 161.60 24.75Q161.60 22.85 161.08 21.42Q160.55 20.00 159.45 19.05Q158.35 18.10 156.65 17.62Q154.95 17.15 152.65 17.15Q150.80 17.15 150.08 17.90Q149.35 18.65 149.28 19.97Q149.20 21.30 149.20 23.10L149.20 32.70Q150 32.75 150.72 32.80Q151.45 32.85 152.30 32.80ZM184.05 16.95Q182.20 17.00 181.48 17.80Q180.75 18.60 180.68 19.95Q180.60 21.30 180.60 23.10L180.60 44.35Q180.60 45.70 180.58 46.67Q180.55 47.65 180.45 48.30Q181.35 48.25 182.25 48.20Q183.15 48.15 184.05 48.10L184.05 50.30L172.80 50.30L172.80 48.65Q174.70 48.55 175.40 47.77Q176.10 47 176.18 45.63Q176.25 44.25 176.25 42.50L176.25 20.90Q176.25 19.90 176.30 18.97Q176.35 18.05 176.40 17.30Q175.50 17.35 174.60 17.40Q173.70 17.45 172.80 17.50L172.80 15.30L184.05 15.30L184.05 16.95ZM206.90 51.10Q202.15 51.10 198.75 49.50Q195.35 47.90 193.23 45.22Q191.10 42.55 190.10 39.30Q189.10 36.05 189.10 32.80Q189.10 29.65 190.15 26.42Q191.20 23.20 193.38 20.50Q195.55 17.80 198.83 16.15Q202.10 14.50 206.50 14.50Q211.10 14.50 214.45 16.15Q217.80 17.80 219.98 20.52Q222.15 23.25 223.23 26.45Q224.30 29.65 224.30 32.80Q224.30 35.90 223.25 39.13Q222.20 42.35 220.03 45.07Q217.85 47.80 214.60 49.45Q211.35 51.10 206.90 51.10M207 49.05Q210.10 49.05 212.40 47.72Q214.70 46.40 216.23 44.17Q217.75 41.95 218.53 39.22Q219.30 36.50 219.30 33.75Q219.30 30.65 218.45 27.60Q217.60 24.55 215.95 22.05Q214.30 19.55 211.88 18.02Q209.45 16.50 206.35 16.50Q203.25 16.50 200.93 17.85Q198.60 19.20 197.08 21.42Q195.55 23.65 194.78 26.37Q194 29.10 194 31.90Q194 34.65 194.78 37.65Q195.55 40.65 197.15 43.25Q198.75 45.85 201.20 47.45Q203.65 49.05 207 49.05ZM248.90 25.90Q248.75 23.50 247.75 21.35Q246.75 19.20 244.85 17.85Q242.95 16.50 240 16.50Q236.90 16.50 235.25 18.25Q233.60 20.00 233.60 22.35Q233.60 24.45 234.80 25.87Q236 27.30 237.93 28.37Q239.85 29.45 242 30.45Q243.90 31.30 245.80 32.27Q247.70 33.25 249.25 34.50Q250.80 35.75 251.72 37.47Q252.65 39.20 252.65 41.60Q252.65 44.35 251.28 46.50Q249.90 48.65 247.30 49.88Q244.70 51.10 240.95 51.10Q238.70 51.10 236.30 50.45Q233.90 49.80 232.05 48.55L232.30 50.70L229.70 50.70L229.40 40.05L231.35 40.05Q231.60 44.45 234.40 46.72Q237.20 49 241.15 49Q243.10 49 244.75 48.27Q246.40 47.55 247.38 46.15Q248.35 44.75 248.35 42.75Q248.35 40.50 247.15 39Q245.95 37.50 244.05 36.40Q242.15 35.30 240 34.30Q238.10 33.45 236.25 32.50Q234.40 31.55 232.88 30.32Q231.35 29.10 230.43 27.40Q229.50 25.70 229.50 23.30Q229.50 22.00 229.95 20.50Q230.40 19.00 231.53 17.62Q232.65 16.25 234.63 15.37Q236.60 14.50 239.65 14.50Q241.55 14.50 243.93 15.02Q246.30 15.55 248.35 17.05L248.15 14.90L250.70 14.90L250.70 25.90L248.90 25.90ZM281.55 51.10Q279.35 51.10 277.25 50.57Q275.15 50.05 273.48 48.88Q271.80 47.70 270.80 45.82Q269.80 43.95 269.80 41.30Q269.80 38.05 271.93 35.55Q274.05 33.05 277.65 31.50Q276.35 29.80 275.50 28.32Q274.65 26.85 274.25 25.37Q273.85 23.90 273.85 22.35Q273.90 18.75 276.50 16.62Q279.10 14.50 283.10 14.50Q285.65 14.50 287.52 15.42Q289.40 16.35 290.43 17.92Q291.45 19.50 291.45 21.50Q291.45 23.35 290.65 25.05Q289.85 26.75 288.05 28.32Q286.25 29.90 283.25 31.45Q284.60 32.85 286.23 34.55Q287.85 36.25 289.50 37.88Q291.15 39.50 292.50 40.80Q292.75 39.90 292.88 39.07Q293 38.25 293 37.60Q293 36.45 292.68 35.32Q292.35 34.20 291.52 33.42Q290.70 32.65 289.20 32.60L289.20 30.95L297.95 30.95L297.95 33L293.80 32.80Q294.60 33.45 294.95 34.50Q295.30 35.55 295.35 36.95Q295.40 37.90 295.18 39.38Q294.95 40.85 294.35 42.45Q294.90 42.95 295.52 43.52Q296.15 44.10 296.85 44.70Q299.10 46.70 300.73 47.67Q302.35 48.65 303.15 48.65L303.15 50.30L298.50 50.30Q298.05 50.30 296.48 49.38Q294.90 48.45 292.30 46.15Q290.70 48.20 288.07 49.65Q285.45 51.10 281.55 51.10M282.15 48.60Q285.30 48.70 287.38 47.57Q289.45 46.45 290.70 44.75Q290.35 44.40 290 44.07Q289.65 43.75 289.25 43.40Q285.90 40.10 283.32 37.55Q280.75 35 278.95 32.95Q277.35 33.90 276.45 35.30Q275.55 36.70 275.18 38.10Q274.80 39.50 274.80 40.55Q274.80 43.30 275.88 45.05Q276.95 46.80 278.63 47.65Q280.30 48.50 282.15 48.60M282.15 30.25Q284.95 28.40 286.30 26.12Q287.65 23.85 287.65 21.65Q287.65 19.25 286.40 17.67Q285.15 16.10 282.85 16.10Q280.80 16.10 279.43 17.62Q278.05 19.15 278.05 21.95Q278.05 24.10 279.23 26.20Q280.40 28.30 282.15 30.25Z"/>
    </g>
    <g transform="translate(50, 30)" fill="#a58a45">
        <path d="M0 50.30L0 48.65Q1.50 48.65 2.30 47.85Q3.10 47.05 3.63 45.65Q4.15 44.25 4.85 42.40L15.15 14.35L16.35 14.35L27.50 42.80Q27.90 43.85 28.40 45.50Q28.90 47.15 28.80 48.30Q29.65 48.25 30.50 48.20Q31.35 48.15 32.20 48.10L32.20 50.30L20.75 50.30L20.75 48.65Q22.65 48.60 23.25 47.80Q23.85 47 23.70 45.90Q23.55 44.80 23.20 43.90L21.45 39.20L8.45 39.50L6.70 44.85Q6.35 46.05 6.08 46.75Q5.80 47.45 5.45 48.30Q6.45 48.25 7.42 48.20Q8.40 48.15 9.35 48.10L9.35 50.30L0 50.30M9.20 37.35L20.75 37.35L17.20 27.80Q16.65 26.25 16.07 24.72Q15.50 23.20 14.95 21.65L14.85 21.65Q14.35 23.05 13.83 24.45Q13.30 25.85 12.75 27.30L9.20 37.35ZM62 26.45Q61.50 21.75 58.73 19.15Q55.95 16.55 51.60 16.55Q48.95 16.55 46.63 17.67Q44.30 18.80 42.55 20.90Q40.80 23.00 39.80 25.95Q38.80 28.90 38.80 32.60Q38.80 37.30 40.60 40.90Q42.40 44.50 45.45 46.50Q48.50 48.50 52.20 48.50Q55.45 48.50 58.60 47.02Q61.75 45.55 63.75 42.75L65.05 43.80Q62.90 46.75 60.40 48.35Q57.90 49.95 55.43 50.52Q52.95 51.10 50.90 51.10Q47.15 51.10 44.03 49.75Q40.90 48.40 38.63 45.97Q36.35 43.55 35.13 40.32Q33.90 37.10 33.90 33.35Q33.90 29.80 34.98 26.45Q36.05 23.10 38.20 20.40Q40.35 17.70 43.63 16.10Q46.90 14.50 51.25 14.50Q54.05 14.50 56.55 15.25Q59.05 16.00 61.35 17.55L61.10 14.85L63.80 14.85L63.80 26.45L62 26.45ZM95.50 25.85Q95.45 22.90 94.90 20.95Q94.35 19.00 92.98 18.02Q91.60 17.05 89.00 17.10L84.75 17.10L84.70 44.35Q84.70 45.70 84.68 46.67Q84.65 47.65 84.55 48.30Q85.60 48.25 86.63 48.20Q87.65 48.15 88.70 48.10L88.70 50.30L76.95 50.30L76.95 48.65Q78.85 48.55 79.53 47.75Q80.20 46.95 80.28 45.57Q80.35 44.20 80.35 42.50L80.40 17.15L75.25 17.20Q72.10 17.20 70.80 19.30Q69.50 21.40 69.50 25.85L67.65 25.85L67.95 15.30L97.10 15.30L97.40 25.85L95.50 25.85ZM112.55 16.95Q110.70 17.00 109.98 17.80Q109.25 18.60 109.18 19.95Q109.10 21.30 109.10 23.10L109.10 44.35Q109.10 45.70 109.08 46.67Q109.05 47.65 108.95 48.30Q109.85 48.25 110.75 48.20Q111.65 48.15 112.55 48.10L112.55 50.30L101.30 50.30L101.30 48.65Q103.20 48.55 103.90 47.77Q104.60 47 104.68 45.63Q104.75 44.25 104.75 42.50L104.75 20.90Q104.75 19.90 104.80 18.97Q104.85 18.05 104.90 17.30Q104.00 17.35 103.10 17.40Q102.20 17.45 101.30 17.50L101.30 15.30L112.55 15.30L112.55 16.95ZM131.40 50.80L120.05 24.20Q118.95 21.65 118.50 20.07Q118.05 18.50 117.90 17.40Q117.20 17.45 116.50 17.45Q115.80 17.45 115.10 17.50L115.10 15.30L126.70 15.30L126.65 17.00Q124.15 17.15 123.65 18.52Q123.15 19.90 124.15 22.40Q125.35 25.35 126.45 28.10Q127.55 30.85 128.90 34.05Q130.10 36.85 131.23 39.42Q132.35 42 132.95 43.70L133.05 43.70Q133.60 41.95 134.18 40.35Q134.75 38.75 135.55 36.55Q137.05 32.35 138.08 29.45Q139.10 26.55 139.85 24.50Q140.60 22.45 141.10 21.00Q141.55 19.70 141.90 18.80Q142.25 17.90 142.55 17.30Q141.60 17.35 140.65 17.40Q139.70 17.45 138.70 17.50L138.70 15.30L148.85 15.30L148.85 16.95Q146.65 17.05 145.48 18.10Q144.30 19.15 143.35 21.85Q143.25 22.10 143.10 22.52Q142.95 22.95 142.60 23.90Q142.25 24.85 141.60 26.67Q140.95 28.50 139.83 31.60Q138.70 34.70 136.98 39.40Q135.25 44.10 132.80 50.80L131.40 50.80ZM161.95 16.95Q160.10 17.00 159.38 17.80Q158.65 18.60 158.58 19.95Q158.50 21.30 158.50 23.10L158.50 44.35Q158.50 45.70 158.48 46.67Q158.45 47.65 158.35 48.30Q159.25 48.25 160.15 48.20Q161.05 48.15 161.95 48.10L161.95 50.30L150.70 50.30L150.70 48.65Q152.60 48.55 153.30 47.77Q154.00 47 154.08 45.63Q154.15 44.25 154.15 42.50L154.15 20.90Q154.15 19.90 154.20 18.97Q154.25 18.05 154.30 17.30Q153.40 17.35 152.50 17.40Q151.60 17.45 150.70 17.50L150.70 15.30L161.95 15.30L161.95 16.95ZM167.45 48.65Q169.35 48.55 170.05 47.77Q170.75 47 170.83 45.63Q170.90 44.25 170.90 42.50L170.90 20.90Q170.90 19.90 170.95 18.97Q171.00 18.05 171.05 17.30Q170.15 17.35 169.25 17.40Q168.35 17.45 167.45 17.50L167.45 15.30L179.25 15.25Q183.75 15.25 187.50 16.30Q191.25 17.35 193.98 19.52Q196.70 21.70 198.18 25.02Q199.65 28.35 199.65 32.85Q199.65 36.30 198.45 39.45Q197.25 42.60 194.85 45.02Q192.45 47.45 188.88 48.88Q185.30 50.30 180.60 50.30L167.45 50.30L167.45 48.65M175.25 44.40Q175.25 45.75 175.23 46.70Q175.20 47.65 175.10 48.30Q176.45 48.35 177.58 48.38Q178.70 48.40 179.48 48.40Q180.25 48.40 180.45 48.40Q183.70 48.40 186.33 47.20Q188.95 46 190.83 43.88Q192.70 41.75 193.73 38.88Q194.75 36 194.75 32.65Q194.75 27.90 193.03 24.42Q191.30 20.95 187.75 19.02Q184.20 17.10 178.70 17.10Q176.85 17.10 176.13 17.85Q175.40 18.60 175.33 19.95Q175.25 21.30 175.25 23.10L175.25 44.40ZM201.65 50.30L201.65 48.65Q203.15 48.65 203.95 47.85Q204.75 47.05 205.28 45.65Q205.80 44.25 206.50 42.40L216.80 14.35L218.00 14.35L229.15 42.80Q229.55 43.85 230.05 45.50Q230.55 47.15 230.45 48.30Q231.30 48.25 232.15 48.20Q233.00 48.15 233.85 48.10L233.85 50.30L222.40 50.30L222.40 48.65Q224.30 48.60 224.90 47.80Q225.50 47 225.35 45.90Q225.20 44.80 224.85 43.90L223.10 39.20L210.10 39.50L208.35 44.85Q208.00 46.05 207.73 46.75Q207.45 47.45 207.10 48.30Q208.10 48.25 209.08 48.20Q210.05 48.15 211.00 48.10L211.00 50.30L201.65 50.30M210.85 37.35L222.40 37.35L218.85 27.80Q218.30 26.25 217.73 24.72Q217.15 23.20 216.60 21.65L216.50 21.65Q216.00 23.05 215.48 24.45Q214.95 25.85 214.40 27.30L210.85 37.35ZM236.00 48.65Q237.90 48.55 238.60 47.77Q239.30 47 239.38 45.63Q239.45 44.25 239.45 42.50L239.45 20.90Q239.45 19.90 239.50 18.97Q239.55 18.05 239.60 17.30Q238.70 17.35 237.80 17.40Q236.90 17.45 236.00 17.50L236.00 15.30L247.80 15.25Q252.30 15.25 256.05 16.30Q259.80 17.35 262.53 19.52Q265.25 21.70 266.73 25.02Q268.20 28.35 268.20 32.85Q268.20 36.30 267 39.45Q265.80 42.60 263.40 45.02Q261 47.45 257.43 48.88Q253.85 50.30 249.15 50.30L236.00 50.30L236.00 48.65M243.80 44.40Q243.80 45.75 243.78 46.70Q243.75 47.65 243.65 48.30Q245.00 48.35 246.13 48.38Q247.25 48.40 248.03 48.40Q248.80 48.40 249.00 48.40Q252.25 48.40 254.88 47.20Q257.50 46 259.38 43.88Q261.25 41.75 262.28 38.88Q263.30 36 263.30 32.65Q263.30 27.90 261.58 24.42Q259.85 20.95 256.30 19.02Q252.75 17.10 247.25 17.10Q245.40 17.10 244.68 17.85Q243.95 18.60 243.88 19.95Q243.80 21.30 243.80 23.10L243.80 44.40ZM290.65 37.35Q290.65 35.15 290.05 34.20Q289.45 33.25 288.15 33.05Q286.85 32.85 284.70 32.95L281.05 33.10L281.05 44.55Q281.05 45.90 281.02 46.85Q281 47.80 280.90 48.45L290.45 48.30Q292.65 48.25 294.25 47.57Q295.85 46.90 296.75 45.20Q297.65 43.50 297.65 40.55L299.35 40.55L299.05 50.30L273.25 50.30L273.25 48.65Q275.15 48.55 275.85 47.77Q276.55 47 276.63 45.63Q276.70 44.25 276.70 42.50L276.70 20.90Q276.70 19.90 276.75 18.97Q276.80 18.05 276.85 17.30Q275.95 17.35 275.05 17.40Q274.15 17.45 273.25 17.50L273.25 15.30L297.30 15.30L297.55 24.05L295.90 24.05Q295.90 21.10 295 19.57Q294.10 18.05 292.57 17.52Q291.05 17.00 289.15 17.05L284.85 17.15Q283 17.20 282.20 17.85Q281.40 18.50 281.23 19.77Q281.05 21.05 281.05 23.10L281.05 31.10L290.45 31.15L290.10 26.85L292.30 26.85L292.30 37.35L290.65 37.35ZM324 25.90Q323.85 23.50 322.85 21.35Q321.85 19.20 319.95 17.85Q318.05 16.50 315.10 16.50Q312 16.50 310.35 18.25Q308.70 20.00 308.70 22.35Q308.70 24.45 309.90 25.87Q311.10 27.30 313.03 28.37Q314.95 29.45 317.10 30.45Q319 31.30 320.90 32.27Q322.80 33.25 324.35 34.50Q325.90 35.75 326.83 37.47Q327.75 39.20 327.75 41.60Q327.75 44.35 326.38 46.50Q325 48.65 322.40 49.88Q319.80 51.10 316.05 51.10Q313.80 51.10 311.40 50.45Q309 49.80 307.15 48.55L307.40 50.70L304.80 50.70L304.50 40.05L306.45 40.05Q306.70 44.45 309.50 46.72Q312.30 49 316.25 49Q318.20 49 319.85 48.27Q321.50 47.55 322.48 46.15Q323.45 44.75 323.45 42.75Q323.45 40.50 322.25 39Q321.05 37.50 319.15 36.40Q317.25 35.30 315.10 34.30Q313.20 33.45 311.35 32.50Q309.50 31.55 307.98 30.32Q306.45 29.10 305.53 27.40Q304.60 25.70 304.60 23.30Q304.60 22.00 305.05 20.50Q305.50 19.00 306.63 17.62Q307.75 16.25 309.73 15.37Q311.70 14.50 314.75 14.50Q316.65 14.50 319.03 15.02Q321.40 15.55 323.45 17.05L323.25 14.90L325.80 14.90L325.80 25.90L324 25.90Z"/>
    </g>
</svg>

