<svg xmlns="http://www.w3.org/2000/svg" viewBox="0 0 300 300">
    <g transform="translate(70, 65)" fill="#a58a45">
        <path transform="translate(-30, -60) scale(2.5)" d="M0 50.30L0 48.65Q1.50 48.65 2.30 47.85Q3.10 47.05 3.63 45.65Q4.15 44.25 4.85 42.40L15.15 14.35L16.35 14.35L27.50 42.80Q27.90 43.85 28.40 45.50Q28.90 47.15 28.80 48.30Q29.65 48.25 30.50 48.20Q31.35 48.15 32.20 48.10L32.20 50.30L20.75 50.30L20.75 48.65Q22.65 48.60 23.25 47.80Q23.85 47 23.70 45.90Q23.55 44.80 23.20 43.90L21.45 39.20L8.45 39.50L6.70 44.85Q6.35 46.05 6.08 46.75Q5.80 47.45 5.45 48.30Q6.45 48.25 7.42 48.20Q8.40 48.15 9.35 48.10L9.35 50.30L0 50.30M9.20 37.35L20.75 37.35L17.20 27.80Q16.65 26.25 16.07 24.72Q15.50 23.20 14.95 21.65L14.85 21.65Q14.35 23.05 13.83 24.45Q13.30 25.85 12.75 27.30L9.20 37.35Z"/>
        <path transform="translate(130, 40) scale(2.5)" d="M0 50.30L0 48.65Q1.90 48.55 2.60 47.77Q3.30 47 3.38 45.63Q3.45 44.25 3.45 42.50L3.45 20.90Q3.45 19.90 3.50 18.97Q3.55 18.05 3.60 17.30Q2.70 17.35 1.80 17.40Q0.90 17.45 0 17.50L0 15.30L23.20 15.30L23.45 24.05L21.80 24.05Q21.80 21.10 20.85 19.57Q19.90 18.05 18.35 17.52Q16.80 17.00 14.90 17.05L11.25 17.15Q9.40 17.20 8.70 18.02Q8 18.85 7.90 20.20Q7.80 21.55 7.80 23.30L7.80 31.90L16.50 31.95L16.15 27.60L18.35 27.60L18.35 38.15L16.75 38.15Q16.75 35.90 16.13 34.95Q15.50 34 14.20 33.80Q12.90 33.60 10.80 33.70L7.80 33.85L7.80 44.35Q7.80 45.70 7.78 46.67Q7.75 47.65 7.65 48.30Q8.50 48.25 9.35 48.22Q10.20 48.20 11.05 48.15Q11.90 48.10 12.75 48.10L12.75 50.30L0 50.30Z"/>
        <path transform="translate(-10, -30) scale(1.5)" d="M75.17,50.91c-.13.61-.46,2.16-.99,4.65s-.91,4.25-1.15,5.27c-.24,1.02-.58,2.51-1.03,4.45-.45,1.95-.88,3.69-1.3,5.22-.42,1.54-.87,3.06-1.35,4.57-.69,2.18-1.6,4.65-2.75,7.42,4.08,4.41,6.85,9.48,8.3,15.2,1.47,5.74,1.63,11.71.49,17.91-1.14,6.19-3.42,11.71-6.81,16.56-1.7,2.42-3.63,4.54-5.8,6.36-2.17,1.81-4.44,2.92-6.83,3.32-2.58.42-4.64-.11-6.18-1.57-.88-.84-1.41-1.82-1.6-2.93-.19-1.12,0-2.21.54-3.28.32-.61.83-.88,1.5-.82.68.07,1.16.36,1.46.87.3.51.28,1.07-.04,1.66-.59.9-.62,1.85-.1,2.85.53,1,1.29,1.64,2.3,1.9,2.2.61,4.94-.45,8.25-3.18,1.97-1.58,3.74-3.53,5.33-5.84,2.9-4.22,4.95-9.15,6.16-14.8.73-3.74,1-7.42.83-11.04-.17-3.62-.92-7.21-2.23-10.76-1.32-3.56-3.16-6.75-5.52-9.58-.19-.23-.46-.53-.8-.92-1.13,2.63-2.49,5.5-4.09,8.59-5.33,10.27-12.09,18.92-20.3,25.97-4.45,3.8-8.97,6.84-13.57,9.13-5.74,2.88-10.78,4.14-15.12,3.78-2.62-.21-4.93-1.02-6.94-2.43-2.01-1.41-3.5-3.31-4.45-5.7-1.76-4.33-1.81-9.71-.17-16.12,1.39-5.42,3.85-10.53,7.36-15.32,3.51-4.79,7.65-8.89,12.43-12.28,3.32-2.35,6.88-4.18,10.66-5.48,3.79-1.31,7.71-2.01,11.77-2.1,4.06-.1,7.99.61,11.81,2.12,2.86,1.11,5.59,2.74,8.19,4.9,1.24-3.38,2.46-7.34,3.66-11.88,1.16-4.47,2.78-11.2,4.84-20.21-.13.38-.33.94-.59,1.69-.26.74-.44,1.31-.56,1.69-1.26,3.7-2.26,6.46-3.01,8.27-.04.08-.18.42-.43,1.02-.25.6-.42,1.01-.52,1.23-.1.22-.28.62-.56,1.19-.28.57-.51.99-.7,1.25-.19.26-.45.59-.77,1-.32.41-.64.71-.93.89-.3.18-.64.34-1.04.49-.4.14-.81.2-1.23.19-.04,0-.08-.01-.13-.04-.05-.03-.08-.04-.1-.04-.63-.02-1.21-.29-1.73-.82-.52-.52-.92-1.13-1.19-1.82-.55-1.43-.72-3.37-.49-5.81.5-5.1,2.01-10.83,4.55-17.21.27-.67.72-1.07,1.36-1.2.64-.13,1.19.01,1.65.44.46.43.61,1.01.46,1.73-.42,2-1.16,4.91-2.23,8.7-1.07,3.8-1.66,5.92-1.77,6.36-.63,2.37-.94,4.18-.92,5.44,0,.67.08,1.16.23,1.49.1.19.34.45.74.77.06,0,.1,0,.11.03.59.27,1.42-.4,2.49-2,.84-1.2,1.8-3.09,2.89-5.67.69-1.64,1.65-4.25,2.89-7.82,1.24-3.57,2.25-6.25,3.04-8.04v-.03l.03-.06s.04-.09.07-.14.04-.1.04-.11l.03-.03c.25-.63.7-.98,1.35-1.06.65-.08,1.22.12,1.7.59.49.47.65,1.06.5,1.79-.23,1.01-.56,2.54-1,4.6-.44,2.05-.76,3.59-.97,4.62ZM50.06,105.13c4.12-5.61,8.08-12.93,11.88-21.96.17-.4.41-1,.72-1.8-3.44-2.82-7.33-4.77-11.68-5.84-4.35-1.07-8.79-1.17-13.31-.31-5.13.97-9.97,3.01-14.5,6.1-4.53,3.09-8.48,6.87-11.84,11.34-3.45,4.58-5.91,9.34-7.36,14.29-1.68,5.8-1.85,10.77-.51,14.92.76,2.39,2.1,4.22,4.02,5.5,1.92,1.28,4.16,1.9,6.71,1.86,3.97-.04,8.58-1.5,13.83-4.38,8.4-4.6,15.75-11.17,22.05-19.7Z"></path>
    </g>
</svg>
