<svg xmlns="http://www.w3.org/2000/svg" viewBox="0 14 275 36.75" data-asc="1.006" width="217.60000610351562" height="66.75">
    <g fill="#a58a45">
        <g transform="translate(0, -24)">
            <path d="M27.25 51.10L7.30 24.30Q6.85 23.70 6.43 23.12Q6 22.55 5.55 21.95L5.50 21.95L5.65 43.35Q5.65 44.60 5.65 45.85Q5.65 47.10 5.55 48.30Q6.45 48.25 7.35 48.20Q8.25 48.15 9.15 48.10L9.15 50.30L0 50.30L0 48.65Q1.55 48.65 2.23 47.97Q2.90 47.30 3.10 46.38Q3.30 45.45 3.30 44.70L3.35 20.65Q3.35 19.80 3.35 18.95Q3.35 18.10 3.35 17.30Q2.55 17.35 1.70 17.40Q0.85 17.45 0 17.50L0 15.30L5.95 15.30L24.70 40.40Q25.35 41.25 25.98 42.10Q26.60 42.95 27.25 43.80L27.30 43.80L27.35 20.90Q27.35 19.90 27.40 18.97Q27.45 18.05 27.50 17.30Q26.60 17.35 25.70 17.40Q24.80 17.45 23.90 17.50L23.90 15.30L33.10 15.30L33.10 16.95Q31.25 17.00 30.55 17.80Q29.85 18.60 29.80 19.95Q29.75 21.30 29.75 23.10L29.65 51.10L27.25 51.10ZM48 16.95Q46.35 16.95 45.63 17.65Q44.90 18.35 44.75 19.27Q44.60 20.20 44.60 20.90L44.60 33.50Q44.60 36.30 44.98 38.92Q45.35 41.55 46.40 43.65Q47.45 45.75 49.52 47Q51.60 48.25 54.95 48.25Q58.55 48.25 60.83 46.55Q63.10 44.85 64.17 41.85Q65.25 38.85 65.30 34.95L65.45 20.90Q65.45 19.90 65.50 18.97Q65.55 18.05 65.60 17.30Q64.70 17.35 63.83 17.40Q62.95 17.45 62.05 17.50L62.05 15.30L71.35 15.30L71.35 16.95Q69.45 17.00 68.75 17.80Q68.05 18.60 67.97 19.95Q67.90 21.30 67.85 23.10L67.75 34.70Q67.75 37.95 67.05 40.90Q66.35 43.85 64.78 46.15Q63.20 48.45 60.63 49.77Q58.05 51.10 54.30 51.10Q50.30 51.10 47.58 50.05Q44.85 49 43.23 46.80Q41.60 44.60 40.90 41.25Q40.20 37.90 40.20 33.25L40.20 23.10Q40.20 21.80 40.27 20.02Q40.35 18.25 40.40 17.30Q39.50 17.35 38.60 17.37Q37.70 17.40 36.80 17.45L36.80 15.30L48 15.30L48 16.95ZM93 37.35Q93 35.15 92.40 34.20Q91.80 33.25 90.50 33.05Q89.20 32.85 87.05 32.95L83.40 33.10L83.40 44.55Q83.40 45.90 83.38 46.85Q83.35 47.80 83.25 48.45L92.80 48.30Q95 48.25 96.60 47.57Q98.20 46.90 99.10 45.20Q100 43.50 100 40.55L101.70 40.55L101.40 50.30L75.60 50.30L75.60 48.65Q77.50 48.55 78.20 47.77Q78.90 47 78.97 45.63Q79.05 44.25 79.05 42.50L79.05 20.90Q79.05 19.90 79.10 18.97Q79.15 18.05 79.20 17.30Q78.30 17.35 77.40 17.40Q76.50 17.45 75.60 17.50L75.60 15.30L99.65 15.30L99.90 24.05L98.25 24.05Q98.25 21.10 97.35 19.57Q96.45 18.05 94.92 17.52Q93.40 17.00 91.50 17.05L87.20 17.15Q85.35 17.20 84.55 17.85Q83.75 18.50 83.57 19.77Q83.40 21.05 83.40 23.10L83.40 31.10L92.80 31.15L92.45 26.85L94.65 26.85L94.65 37.35L93 37.35ZM126.35 25.90Q126.20 23.50 125.20 21.35Q124.20 19.20 122.30 17.85Q120.40 16.50 117.45 16.50Q114.35 16.50 112.70 18.25Q111.05 20.00 111.05 22.35Q111.05 24.45 112.25 25.87Q113.45 27.30 115.37 28.37Q117.30 29.45 119.45 30.45Q121.35 31.30 123.25 32.27Q125.15 33.25 126.70 34.50Q128.25 35.75 129.17 37.47Q130.10 39.20 130.10 41.60Q130.10 44.35 128.72 46.50Q127.35 48.65 124.75 49.88Q122.15 51.10 118.40 51.10Q116.15 51.10 113.75 50.45Q111.35 49.80 109.50 48.55L109.75 50.70L107.15 50.70L106.85 40.05L108.80 40.05Q109.05 44.45 111.85 46.72Q114.65 49 118.60 49Q120.55 49 122.20 48.27Q123.85 47.55 124.82 46.15Q125.80 44.75 125.80 42.75Q125.80 40.50 124.60 39Q123.40 37.50 121.50 36.40Q119.60 35.30 117.45 34.30Q115.55 33.45 113.70 32.50Q111.85 31.55 110.32 30.32Q108.80 29.10 107.87 27.40Q106.95 25.70 106.95 23.30Q106.95 22.00 107.40 20.50Q107.85 19.00 108.97 17.62Q110.10 16.25 112.07 15.37Q114.05 14.50 117.10 14.50Q119.00 14.50 121.37 15.02Q123.75 15.55 125.80 17.05L125.60 14.90L128.15 14.90L128.15 25.90L126.35 25.90ZM161.25 25.85Q161.20 22.90 160.65 20.95Q160.10 19.00 158.72 18.02Q157.35 17.05 154.75 17.10L150.50 17.10L150.45 44.35Q150.45 45.70 150.42 46.67Q150.40 47.65 150.30 48.30Q151.35 48.25 152.38 48.20Q153.40 48.15 154.45 48.10L154.45 50.30L142.70 50.30L142.70 48.65Q144.60 48.55 145.27 47.75Q145.95 46.95 146.02 45.57Q146.10 44.20 146.10 42.50L146.15 17.15L141.00 17.20Q137.85 17.20 136.55 19.30Q135.25 21.40 135.25 25.85L133.40 25.85L133.70 15.30L162.85 15.30L163.15 25.85L161.25 25.85ZM167.05 50.30L167.05 48.65Q168.95 48.55 169.65 47.77Q170.35 47 170.42 45.63Q170.50 44.25 170.50 42.50L170.50 20.90Q170.50 19.90 170.55 18.97Q170.60 18.05 170.65 17.30Q169.75 17.35 168.85 17.40Q167.95 17.45 167.05 17.50L167.05 15.30Q169.85 15.25 172.72 15.20Q175.60 15.15 178.50 15.25Q183.35 15.30 186.32 16.37Q189.30 17.45 190.70 19.42Q192.10 21.40 192.10 24.20Q192.15 26.15 191.38 28.17Q190.60 30.20 188.57 31.80Q186.55 33.40 182.75 34.20Q183.75 34.90 184.50 36Q185.25 37.10 186.20 38.55L189.60 43.90Q190.45 45.25 191.25 46.32Q192.05 47.40 193.10 48.02Q194.15 48.65 195.70 48.65L195.70 50.30L189.40 50.30Q187.95 49 186.97 47.70Q186 46.40 184.95 44.75L181.60 39.40Q180.95 38.35 180.12 36.97Q179.30 35.60 178.25 34.65Q177.45 34.70 176.57 34.70Q175.70 34.70 174.85 34.65L174.85 44.35Q174.85 45.70 174.82 46.67Q174.80 47.65 174.70 48.30Q175.30 48.25 175.90 48.22Q176.50 48.20 177.10 48.15Q177.70 48.10 178.30 48.10L178.30 50.30L167.05 50.30M177.95 32.80Q180.70 32.70 182.77 31.90Q184.85 31.10 186.05 29.35Q187.25 27.60 187.25 24.75Q187.25 22.85 186.72 21.42Q186.20 20.00 185.10 19.05Q184 18.10 182.30 17.62Q180.60 17.15 178.30 17.15Q176.45 17.15 175.72 17.90Q175.00 18.65 174.92 19.97Q174.85 21.30 174.85 23.10L174.85 32.70Q175.65 32.75 176.37 32.80Q177.10 32.85 177.95 32.80ZM195.40 50.30L195.40 48.65Q196.90 48.65 197.70 47.85Q198.50 47.05 199.02 45.65Q199.55 44.25 200.25 42.40L210.55 14.35L211.75 14.35L222.90 42.80Q223.30 43.85 223.80 45.50Q224.30 47.15 224.20 48.30Q225.05 48.25 225.90 48.20Q226.75 48.15 227.60 48.10L227.60 50.30L216.15 50.30L216.15 48.65Q218.05 48.60 218.65 47.80Q219.25 47 219.10 45.90Q218.95 44.80 218.60 43.90L216.85 39.20L203.85 39.50L202.10 44.85Q201.75 46.05 201.47 46.75Q201.20 47.45 200.85 48.30Q201.85 48.25 202.82 48.20Q203.80 48.15 204.75 48.10L204.75 50.30L195.40 50.30M204.60 37.35L216.15 37.35L212.60 27.80Q212.05 26.25 211.47 24.72Q210.90 23.20 210.35 21.65L210.25 21.65Q209.75 23.05 209.22 24.45Q208.70 25.85 208.15 27.30L204.60 37.35Z"/>
        </g>
        <g transform="translate(40, 23)">
            <path d="M0 50.30L0 48.65Q1.90 48.55 2.60 47.77Q3.30 47 3.38 45.63Q3.45 44.25 3.45 42.50L3.45 20.90Q3.45 19.90 3.50 18.97Q3.55 18.05 3.60 17.30Q2.70 17.35 1.80 17.40Q0.90 17.45 0 17.50L0 15.30L11.25 15.30L11.25 16.95Q9.40 17.00 8.68 17.80Q7.95 18.60 7.88 19.95Q7.80 21.30 7.80 23.10L7.80 31.40L25.70 31.40L25.70 20.90Q25.70 19.90 25.75 18.97Q25.80 18.05 25.85 17.30Q24.95 17.35 24.05 17.40Q23.15 17.45 22.25 17.50L22.25 15.30L33.50 15.30L33.50 16.95Q31.65 17.00 30.93 17.80Q30.20 18.60 30.13 19.95Q30.05 21.30 30.05 23.10L30.05 44.35Q30.05 45.70 30.02 46.67Q30 47.65 29.90 48.30Q30.80 48.25 31.70 48.20Q32.60 48.15 33.50 48.10L33.50 50.30L22.25 50.30L22.25 48.65Q24.15 48.55 24.85 47.77Q25.55 47 25.63 45.63Q25.70 44.25 25.70 42.50L25.70 33.40L7.80 33.60L7.80 44.35Q7.80 45.70 7.78 46.67Q7.75 47.65 7.65 48.30Q8.55 48.25 9.45 48.20Q10.35 48.15 11.25 48.10L11.25 50.30L0 50.30ZM50.25 16.95Q48.40 17.00 47.67 17.80Q46.95 18.60 46.88 19.95Q46.80 21.30 46.80 23.10L46.80 44.35Q46.80 45.70 46.77 46.67Q46.75 47.65 46.65 48.30Q47.55 48.25 48.45 48.20Q49.35 48.15 50.25 48.10L50.25 50.30L39 50.30L39 48.65Q40.90 48.55 41.60 47.77Q42.30 47 42.38 45.63Q42.45 44.25 42.45 42.50L42.45 20.90Q42.45 19.90 42.50 18.97Q42.55 18.05 42.60 17.30Q41.70 17.35 40.80 17.40Q39.90 17.45 39 17.50L39 15.30L50.25 15.30L50.25 16.95ZM75.40 25.90Q75.25 23.50 74.25 21.35Q73.25 19.20 71.35 17.85Q69.45 16.50 66.50 16.50Q63.40 16.50 61.75 18.25Q60.10 20.00 60.10 22.35Q60.10 24.45 61.30 25.87Q62.50 27.30 64.42 28.37Q66.35 29.45 68.50 30.45Q70.40 31.30 72.30 32.27Q74.20 33.25 75.75 34.50Q77.30 35.75 78.22 37.47Q79.15 39.20 79.15 41.60Q79.15 44.35 77.78 46.50Q76.40 48.65 73.80 49.88Q71.20 51.10 67.45 51.10Q65.20 51.10 62.80 50.45Q60.40 49.80 58.55 48.55L58.80 50.70L56.20 50.70L55.90 40.05L57.85 40.05Q58.10 44.45 60.90 46.72Q63.70 49 67.65 49Q69.60 49 71.25 48.27Q72.90 47.55 73.88 46.15Q74.85 44.75 74.85 42.75Q74.85 40.50 73.65 39Q72.45 37.50 70.55 36.40Q68.65 35.30 66.50 34.30Q64.60 33.45 62.75 32.50Q60.90 31.55 59.38 30.32Q57.85 29.10 56.92 27.40Q56 25.70 56 23.30Q56 22.00 56.45 20.50Q56.90 19.00 58.02 17.62Q59.15 16.25 61.13 15.37Q63.10 14.50 66.15 14.50Q68.05 14.50 70.42 15.02Q72.80 15.55 74.85 17.05L74.65 14.90L77.20 14.90L77.20 25.90L75.40 25.90ZM110.30 25.85Q110.25 22.90 109.70 20.95Q109.15 19.00 107.77 18.02Q106.40 17.05 103.80 17.10L99.55 17.10L99.50 44.35Q99.50 45.70 99.47 46.67Q99.45 47.65 99.35 48.30Q100.40 48.25 101.42 48.20Q102.45 48.15 103.50 48.10L103.50 50.30L91.75 50.30L91.75 48.65Q93.65 48.55 94.32 47.75Q95 46.95 95.07 45.57Q95.15 44.20 95.15 42.50L95.20 17.15L90.05 17.20Q86.90 17.20 85.60 19.30Q84.30 21.40 84.30 25.85L82.45 25.85L82.75 15.30L111.90 15.30L112.20 25.85L110.30 25.85ZM133.45 51.10Q128.70 51.10 125.30 49.50Q121.90 47.90 119.77 45.22Q117.65 42.55 116.65 39.30Q115.65 36.05 115.65 32.80Q115.65 29.65 116.70 26.42Q117.75 23.20 119.92 20.50Q122.10 17.80 125.38 16.15Q128.65 14.50 133.05 14.50Q137.65 14.50 141 16.15Q144.35 17.80 146.53 20.52Q148.70 23.25 149.78 26.45Q150.85 29.65 150.85 32.80Q150.85 35.90 149.80 39.13Q148.75 42.35 146.57 45.07Q144.40 47.80 141.15 49.45Q137.90 51.10 133.45 51.10M133.55 49.05Q136.65 49.05 138.95 47.72Q141.25 46.40 142.78 44.17Q144.30 41.95 145.07 39.22Q145.85 36.50 145.85 33.75Q145.85 30.65 145 27.60Q144.15 24.55 142.50 22.05Q140.85 19.55 138.43 18.02Q136 16.50 132.90 16.50Q129.80 16.50 127.47 17.85Q125.15 19.20 123.63 21.42Q122.10 23.65 121.32 26.37Q120.55 29.10 120.55 31.90Q120.55 34.65 121.32 37.65Q122.10 40.65 123.70 43.25Q125.30 45.85 127.75 47.45Q130.20 49.05 133.55 49.05ZM155.80 50.30L155.80 48.65Q157.70 48.55 158.40 47.77Q159.10 47 159.18 45.63Q159.25 44.25 159.25 42.50L159.25 20.90Q159.25 19.90 159.30 18.97Q159.35 18.05 159.40 17.30Q158.50 17.35 157.60 17.40Q156.70 17.45 155.80 17.50L155.80 15.30Q158.60 15.25 161.48 15.20Q164.35 15.15 167.25 15.25Q172.10 15.30 175.08 16.37Q178.05 17.45 179.45 19.42Q180.85 21.40 180.85 24.20Q180.90 26.15 180.13 28.17Q179.35 30.20 177.33 31.80Q175.30 33.40 171.50 34.20Q172.50 34.90 173.25 36Q174 37.10 174.95 38.55L178.35 43.90Q179.20 45.25 180 46.32Q180.80 47.40 181.85 48.02Q182.90 48.65 184.45 48.65L184.45 50.30L178.15 50.30Q176.70 49 175.73 47.70Q174.75 46.40 173.70 44.75L170.35 39.40Q169.70 38.35 168.88 36.97Q168.05 35.60 167 34.65Q166.20 34.70 165.33 34.70Q164.45 34.70 163.60 34.65L163.60 44.35Q163.60 45.70 163.58 46.67Q163.55 47.65 163.45 48.30Q164.05 48.25 164.65 48.22Q165.25 48.20 165.85 48.15Q166.45 48.10 167.05 48.10L167.05 50.30L155.80 50.30M166.70 32.80Q169.45 32.70 171.53 31.90Q173.60 31.10 174.80 29.35Q176 27.60 176 24.75Q176 22.85 175.48 21.42Q174.95 20.00 173.85 19.05Q172.75 18.10 171.05 17.62Q169.35 17.15 167.05 17.15Q165.20 17.15 164.48 17.90Q163.75 18.65 163.68 19.97Q163.60 21.30 163.60 23.10L163.60 32.70Q164.40 32.75 165.13 32.80Q165.85 32.85 166.70 32.80ZM198.45 16.95Q196.60 17.00 195.88 17.80Q195.15 18.60 195.08 19.95Q195.00 21.30 195.00 23.10L195.00 44.35Q195.00 45.70 194.98 46.67Q194.95 47.65 194.85 48.30Q195.75 48.25 196.65 48.20Q197.55 48.15 198.45 48.10L198.45 50.30L187.20 50.30L187.20 48.65Q189.10 48.55 189.80 47.77Q190.50 47 190.58 45.63Q190.65 44.25 190.65 42.50L190.65 20.90Q190.65 19.90 190.70 18.97Q190.75 18.05 190.80 17.30Q189.90 17.35 189.00 17.40Q188.10 17.45 187.20 17.50L187.20 15.30L198.45 15.30L198.45 16.95ZM200.90 50.30L200.90 48.65Q202.40 48.65 203.20 47.85Q204.00 47.05 204.53 45.65Q205.05 44.25 205.75 42.40L216.05 14.35L217.25 14.35L228.40 42.80Q228.80 43.85 229.30 45.50Q229.80 47.15 229.70 48.30Q230.55 48.25 231.40 48.20Q232.25 48.15 233.10 48.10L233.10 50.30L221.65 50.30L221.65 48.65Q223.55 48.60 224.15 47.80Q224.75 47 224.60 45.90Q224.45 44.80 224.10 43.90L222.35 39.20L209.35 39.50L207.60 44.85Q207.25 46.05 206.98 46.75Q206.70 47.45 206.35 48.30Q207.35 48.25 208.33 48.20Q209.30 48.15 210.25 48.10L210.25 50.30L200.90 50.30M210.10 37.35L221.65 37.35L218.10 27.80Q217.55 26.25 216.98 24.72Q216.40 23.20 215.85 21.65L215.75 21.65Q215.25 23.05 214.73 24.45Q214.20 25.85 213.65 27.30L210.10 37.35Z"/>
        </g>
    </g>
</svg>