<svg xmlns="http://www.w3.org/2000/svg" viewBox="0 0 275 101">
    <g fill="#a58a45">
        <g transform="translate(0, -10)">
            <path d="M28.10 26.45Q27.60 21.75 24.82 19.15Q22.05 16.55 17.70 16.55Q15.05 16.55 12.72 17.67Q10.40 18.80 8.65 20.90Q6.90 23.00 5.90 25.95Q4.90 28.90 4.90 32.60Q4.90 37.30 6.70 40.90Q8.50 44.50 11.55 46.50Q14.60 48.50 18.30 48.50Q21.55 48.50 24.70 47.02Q27.85 45.55 29.85 42.75L31.15 43.80Q29 46.75 26.50 48.35Q24 49.95 21.53 50.52Q19.05 51.10 17 51.10Q13.25 51.10 10.13 49.75Q7 48.40 4.72 45.97Q2.45 43.55 1.23 40.32Q0 37.10 0 33.35Q0 29.80 1.07 26.45Q2.15 23.10 4.30 20.40Q6.45 17.70 9.72 16.10Q13 14.50 17.35 14.50Q20.15 14.50 22.65 15.25Q25.15 16.00 27.45 17.55L27.20 14.85L29.90 14.85L29.90 26.45L28.10 26.45ZM52.75 51.10Q48.00 51.10 44.60 49.50Q41.20 47.90 39.08 45.22Q36.95 42.55 35.95 39.30Q34.95 36.05 34.95 32.80Q34.95 29.65 36.00 26.42Q37.05 23.20 39.23 20.50Q41.40 17.80 44.68 16.15Q47.95 14.50 52.35 14.50Q56.95 14.50 60.30 16.15Q63.65 17.80 65.83 20.52Q68 23.25 69.08 26.45Q70.15 29.65 70.15 32.80Q70.15 35.90 69.10 39.13Q68.05 42.35 65.88 45.07Q63.70 47.80 60.45 49.45Q57.20 51.10 52.75 51.10M52.85 49.05Q55.95 49.05 58.25 47.72Q60.55 46.40 62.08 44.17Q63.60 41.95 64.38 39.22Q65.15 36.50 65.15 33.75Q65.15 30.65 64.30 27.60Q63.45 24.55 61.80 22.05Q60.15 19.55 57.73 18.02Q55.30 16.50 52.20 16.50Q49.10 16.50 46.78 17.85Q44.45 19.20 42.93 21.42Q41.40 23.65 40.63 26.37Q39.85 29.10 39.85 31.90Q39.85 34.65 40.63 37.65Q41.40 40.65 43.00 43.25Q44.60 45.85 47.05 47.45Q49.50 49.05 52.85 49.05ZM93.95 50.80Q91.75 45.80 89.50 40.82Q87.25 35.85 85.10 30.75Q84.40 29.15 83.73 27.52Q83.05 25.90 82.43 24.25Q81.80 22.60 81.15 20.95Q81.15 21.50 81.13 22.05Q81.10 22.60 81.10 23.15Q81.05 24.95 80.98 27.47Q80.90 30.00 80.80 32.88Q80.70 35.75 80.65 38.63Q80.60 41.50 80.55 44.05Q80.50 45.15 80.48 46.25Q80.45 47.35 80.35 48.30Q81.30 48.25 82.23 48.20Q83.15 48.15 84.10 48.10L84.10 50.30L74.55 50.30L74.55 48.65Q76.10 48.60 76.83 47.97Q77.55 47.35 77.75 46.30Q77.95 45.25 78.00 44.05L78.95 21.25Q79.00 20.25 79.03 19.25Q79.05 18.25 79.10 17.30Q78.20 17.35 77.30 17.37Q76.40 17.40 75.50 17.45L75.50 15.30L83.15 15.30L91.75 35.15Q92.40 36.65 93.03 38.15Q93.65 39.65 94.33 41.15Q95.00 42.65 95.65 44.20L95.75 44.20Q96.30 42.85 97.05 40.97Q97.80 39.10 98.30 37.75Q100.50 32.25 102.88 26.72Q105.25 21.20 107.55 15.30L114.95 15.30L114.95 16.95Q113.70 16.90 112.90 17.42Q112.10 17.95 111.75 19.15Q111.40 20.35 111.50 22.40L112.80 45.15Q112.90 46 112.90 46.80Q112.90 47.60 112.90 48.25Q113.80 48.20 114.73 48.17Q115.65 48.15 116.55 48.10L116.55 50.30L105.35 50.30L105.35 48.65Q106.90 48.60 107.65 47.90Q108.40 47.20 108.58 45.90Q108.75 44.60 108.65 42.70L107.65 26.20Q107.60 25.40 107.55 24.60Q107.50 23.80 107.45 23.00Q107.40 22.20 107.35 21.40Q107.20 21.75 107.03 22.15Q106.85 22.55 106.70 23.00L95.45 50.80L93.95 50.80ZM121.00 48.65Q122.90 48.55 123.60 47.77Q124.30 47 124.38 45.63Q124.45 44.25 124.45 42.50L124.45 20.90Q124.45 19.90 124.50 18.97Q124.55 18.05 124.60 17.30Q123.70 17.35 122.80 17.40Q121.90 17.45 121.00 17.50L121.00 15.30Q123.65 15.25 126.45 15.22Q129.25 15.20 132.15 15.20Q137 15.20 140.30 16.30Q143.60 17.40 145.35 19.55Q147.10 21.70 147.25 24.90Q147.35 26.85 146.68 28.97Q146 31.10 144.18 32.97Q142.35 34.85 139.05 36Q135.75 37.15 130.60 37.15Q130.40 37.15 129.85 37.15Q129.30 37.15 128.80 37.10L128.80 44.35Q128.80 45.70 128.78 46.67Q128.75 47.65 128.65 48.30Q129.45 48.25 130.20 48.20Q130.95 48.15 131.73 48.13Q132.50 48.10 133.25 48.05L133.25 50.30L121.00 50.30L121.00 48.65M128.80 35.05Q129.75 35.15 130.43 35.17Q131.10 35.20 132.05 35.20Q134.90 35.20 137.25 34.07Q139.60 32.95 141 30.85Q142.40 28.75 142.40 25.85Q142.40 23.50 141.65 21.82Q140.90 20.15 139.53 19.12Q138.15 18.10 136.25 17.62Q134.35 17.15 132.05 17.15Q130.30 17.15 129.63 17.90Q128.95 18.65 128.88 19.97Q128.80 21.30 128.80 23.10L128.80 35.05ZM148.25 50.30L148.25 48.65Q149.75 48.65 150.55 47.85Q151.35 47.05 151.88 45.65Q152.40 44.25 153.10 42.40L163.40 14.35L164.60 14.35L175.75 42.80Q176.15 43.85 176.65 45.50Q177.15 47.15 177.05 48.30Q177.90 48.25 178.75 48.20Q179.60 48.15 180.45 48.10L180.45 50.30L169 50.30L169 48.65Q170.90 48.60 171.50 47.80Q172.10 47 171.95 45.90Q171.80 44.80 171.45 43.90L169.70 39.20L156.70 39.50L154.95 44.85Q154.60 46.05 154.33 46.75Q154.05 47.45 153.70 48.30Q154.70 48.25 155.68 48.20Q156.65 48.15 157.60 48.10L157.60 50.30L148.25 50.30M157.45 37.35L169 37.35L165.45 27.80Q164.90 26.25 164.33 24.72Q163.75 23.20 163.20 21.65L163.10 21.65Q162.60 23.05 162.08 24.45Q161.55 25.85 161 27.30L157.45 37.35ZM182.60 50.30L182.60 48.65Q184.50 48.55 185.20 47.77Q185.90 47 185.98 45.63Q186.05 44.25 186.05 42.50L186.05 20.90Q186.05 19.90 186.10 18.97Q186.15 18.05 186.20 17.30Q185.30 17.35 184.40 17.40Q183.50 17.45 182.60 17.50L182.60 15.30Q185.40 15.25 188.28 15.20Q191.15 15.15 194.05 15.25Q198.90 15.30 201.88 16.37Q204.85 17.45 206.25 19.42Q207.65 21.40 207.65 24.20Q207.70 26.15 206.93 28.17Q206.15 30.20 204.13 31.80Q202.10 33.40 198.30 34.20Q199.30 34.90 200.05 36Q200.80 37.10 201.75 38.55L205.15 43.90Q206.00 45.25 206.80 46.32Q207.60 47.40 208.65 48.02Q209.70 48.65 211.25 48.65L211.25 50.30L204.95 50.30Q203.50 49 202.53 47.70Q201.55 46.40 200.50 44.75L197.15 39.40Q196.50 38.35 195.68 36.97Q194.85 35.60 193.80 34.65Q193.00 34.70 192.13 34.70Q191.25 34.70 190.40 34.65L190.40 44.35Q190.40 45.70 190.38 46.67Q190.35 47.65 190.25 48.30Q190.85 48.25 191.45 48.22Q192.05 48.20 192.65 48.15Q193.25 48.10 193.85 48.10L193.85 50.30L182.60 50.30M193.50 32.80Q196.25 32.70 198.33 31.90Q200.40 31.10 201.60 29.35Q202.80 27.60 202.80 24.75Q202.80 22.85 202.28 21.42Q201.75 20.00 200.65 19.05Q199.55 18.10 197.85 17.62Q196.15 17.15 193.85 17.15Q192.00 17.15 191.28 17.90Q190.55 18.65 190.48 19.97Q190.40 21.30 190.40 23.10L190.40 32.70Q191.20 32.75 191.93 32.80Q192.65 32.85 193.50 32.80ZM240.20 25.85Q240.15 22.90 239.60 20.95Q239.05 19.00 237.68 18.02Q236.30 17.05 233.70 17.10L229.45 17.10L229.40 44.35Q229.40 45.70 229.38 46.67Q229.35 47.65 229.25 48.30Q230.30 48.25 231.33 48.20Q232.35 48.15 233.40 48.10L233.40 50.30L221.65 50.30L221.65 48.65Q223.55 48.55 224.23 47.75Q224.90 46.95 224.98 45.57Q225.05 44.20 225.05 42.50L225.10 17.15L219.95 17.20Q216.80 17.20 215.50 19.30Q214.20 21.40 214.20 25.85L212.35 25.85L212.65 15.30L241.80 15.30L242.10 25.85L240.20 25.85ZM263.40 37.35Q263.40 35.15 262.80 34.20Q262.20 33.25 260.90 33.05Q259.60 32.85 257.45 32.95L253.80 33.10L253.80 44.55Q253.80 45.90 253.78 46.85Q253.75 47.80 253.65 48.45L263.20 48.30Q265.40 48.25 267 47.57Q268.60 46.90 269.50 45.20Q270.40 43.50 270.40 40.55L272.10 40.55L271.80 50.30L246.00 50.30L246.00 48.65Q247.90 48.55 248.60 47.77Q249.30 47 249.38 45.63Q249.45 44.25 249.45 42.50L249.45 20.90Q249.45 19.90 249.50 18.97Q249.55 18.05 249.60 17.30Q248.70 17.35 247.80 17.40Q246.90 17.45 246.00 17.50L246.00 15.30L270.05 15.30L270.30 24.05L268.65 24.05Q268.65 21.10 267.75 19.57Q266.85 18.05 265.33 17.52Q263.80 17.00 261.90 17.05L257.60 17.15Q255.75 17.20 254.95 17.85Q254.15 18.50 253.98 19.77Q253.80 21.05 253.80 23.10L253.80 31.10L263.20 31.15L262.85 26.85L265.05 26.85L265.05 37.35L263.40 37.35Z"/>
        </g>
        <g transform="translate(0, 40)">
            <path d="M27.85 25.85Q27.80 22.90 27.25 20.95Q26.70 19.00 25.32 18.02Q23.95 17.05 21.35 17.10L17.10 17.10L17.05 44.35Q17.05 45.70 17.02 46.67Q17 47.65 16.90 48.30Q17.95 48.25 18.98 48.20Q20 48.15 21.05 48.10L21.05 50.30L9.30 50.30L9.30 48.65Q11.20 48.55 11.88 47.75Q12.55 46.95 12.63 45.57Q12.70 44.20 12.70 42.50L12.75 17.15L7.60 17.20Q4.45 17.20 3.15 19.30Q1.85 21.40 1.85 25.85L0 25.85L0.30 15.30L29.45 15.30L29.75 25.85L27.85 25.85ZM43.65 16.95Q42 16.95 41.27 17.65Q40.55 18.35 40.40 19.27Q40.25 20.20 40.25 20.90L40.25 33.50Q40.25 36.30 40.63 38.92Q41 41.55 42.05 43.65Q43.10 45.75 45.17 47Q47.25 48.25 50.60 48.25Q54.20 48.25 56.48 46.55Q58.75 44.85 59.83 41.85Q60.90 38.85 60.95 34.95L61.10 20.90Q61.10 19.90 61.15 18.97Q61.20 18.05 61.25 17.30Q60.35 17.35 59.48 17.40Q58.60 17.45 57.70 17.50L57.70 15.30L67 15.30L67 16.95Q65.10 17.00 64.40 17.80Q63.70 18.60 63.63 19.95Q63.55 21.30 63.50 23.10L63.40 34.70Q63.40 37.95 62.70 40.90Q62 43.85 60.42 46.15Q58.85 48.45 56.27 49.77Q53.70 51.10 49.95 51.10Q45.95 51.10 43.23 50.05Q40.50 49 38.88 46.80Q37.25 44.60 36.55 41.25Q35.85 37.90 35.85 33.25L35.85 23.10Q35.85 21.80 35.92 20.02Q36 18.25 36.05 17.30Q35.15 17.35 34.25 17.37Q33.35 17.40 32.45 17.45L32.45 15.30L43.65 15.30L43.65 16.95ZM90.90 25.90Q90.75 23.50 89.75 21.35Q88.75 19.20 86.85 17.85Q84.95 16.50 82 16.50Q78.90 16.50 77.25 18.25Q75.60 20.00 75.60 22.35Q75.60 24.45 76.80 25.87Q78 27.30 79.92 28.37Q81.85 29.45 84 30.45Q85.90 31.30 87.80 32.27Q89.70 33.25 91.25 34.50Q92.80 35.75 93.72 37.47Q94.65 39.20 94.65 41.60Q94.65 44.35 93.28 46.50Q91.90 48.65 89.30 49.88Q86.70 51.10 82.95 51.10Q80.70 51.10 78.30 50.45Q75.90 49.80 74.05 48.55L74.30 50.70L71.70 50.70L71.40 40.05L73.35 40.05Q73.60 44.45 76.40 46.72Q79.20 49 83.15 49Q85.10 49 86.75 48.27Q88.40 47.55 89.38 46.15Q90.35 44.75 90.35 42.75Q90.35 40.50 89.15 39Q87.95 37.50 86.05 36.40Q84.15 35.30 82 34.30Q80.10 33.45 78.25 32.50Q76.40 31.55 74.88 30.32Q73.35 29.10 72.42 27.40Q71.50 25.70 71.50 23.30Q71.50 22.00 71.95 20.50Q72.40 19.00 73.53 17.62Q74.65 16.25 76.63 15.37Q78.60 14.50 81.65 14.50Q83.55 14.50 85.92 15.02Q88.30 15.55 90.35 17.05L90.15 14.90L92.70 14.90L92.70 25.90L90.90 25.90ZM112.75 50.30L112.75 48.65Q114.65 48.55 115.35 47.77Q116.05 47 116.13 45.63Q116.20 44.25 116.20 42.50L116.20 20.90Q116.20 19.90 116.25 18.97Q116.30 18.05 116.35 17.30Q115.45 17.35 114.55 17.40Q113.65 17.45 112.75 17.50L112.75 15.30L135.95 15.30L136.20 24.05L134.55 24.05Q134.55 21.10 133.60 19.57Q132.65 18.05 131.10 17.52Q129.55 17.00 127.65 17.05L124 17.15Q122.15 17.20 121.45 18.02Q120.75 18.85 120.65 20.20Q120.55 21.55 120.55 23.30L120.55 31.90L129.25 31.95L128.90 27.60L131.10 27.60L131.10 38.15L129.50 38.15Q129.50 35.90 128.88 34.95Q128.25 34 126.95 33.80Q125.65 33.60 123.55 33.70L120.55 33.85L120.55 44.35Q120.55 45.70 120.53 46.67Q120.50 47.65 120.40 48.30Q121.25 48.25 122.10 48.22Q122.95 48.20 123.80 48.15Q124.65 48.10 125.50 48.10L125.50 50.30L112.75 50.30ZM157.50 51.10Q152.75 51.10 149.35 49.50Q145.95 47.90 143.83 45.22Q141.70 42.55 140.70 39.30Q139.70 36.05 139.70 32.80Q139.70 29.65 140.75 26.42Q141.80 23.20 143.97 20.50Q146.15 17.80 149.43 16.15Q152.70 14.50 157.10 14.50Q161.70 14.50 165.05 16.15Q168.40 17.80 170.58 20.52Q172.75 23.25 173.83 26.45Q174.90 29.65 174.90 32.80Q174.90 35.90 173.85 39.13Q172.80 42.35 170.63 45.07Q168.45 47.80 165.20 49.45Q161.95 51.10 157.50 51.10M157.60 49.05Q160.70 49.05 163 47.72Q165.30 46.40 166.83 44.17Q168.35 41.95 169.13 39.22Q169.90 36.50 169.90 33.75Q169.90 30.65 169.05 27.60Q168.20 24.55 166.55 22.05Q164.90 19.55 162.48 18.02Q160.05 16.50 156.95 16.50Q153.85 16.50 151.53 17.85Q149.20 19.20 147.68 21.42Q146.15 23.65 145.38 26.37Q144.60 29.10 144.60 31.90Q144.60 34.65 145.38 37.65Q146.15 40.65 147.75 43.25Q149.35 45.85 151.80 47.45Q154.25 49.05 157.60 49.05ZM206.05 25.85Q206.00 22.90 205.45 20.95Q204.90 19.00 203.53 18.02Q202.15 17.05 199.55 17.10L195.30 17.10L195.25 44.35Q195.25 45.70 195.23 46.67Q195.20 47.65 195.10 48.30Q196.15 48.25 197.18 48.20Q198.20 48.15 199.25 48.10L199.25 50.30L187.50 50.30L187.50 48.65Q189.40 48.55 190.08 47.75Q190.75 46.95 190.83 45.57Q190.90 44.20 190.90 42.50L190.95 17.15L185.80 17.20Q182.65 17.20 181.35 19.30Q180.05 21.40 180.05 25.85L178.20 25.85L178.50 15.30L207.65 15.30L207.95 25.85L206.05 25.85ZM229.20 51.10Q224.45 51.10 221.05 49.50Q217.65 47.90 215.53 45.22Q213.40 42.55 212.40 39.30Q211.40 36.05 211.40 32.80Q211.40 29.65 212.45 26.42Q213.50 23.20 215.68 20.50Q217.85 17.80 221.13 16.15Q224.40 14.50 228.80 14.50Q233.40 14.50 236.75 16.15Q240.10 17.80 242.28 20.52Q244.45 23.25 245.53 26.45Q246.60 29.65 246.60 32.80Q246.60 35.90 245.55 39.13Q244.50 42.35 242.33 45.07Q240.15 47.80 236.90 49.45Q233.65 51.10 229.20 51.10M229.30 49.05Q232.40 49.05 234.70 47.72Q237.00 46.40 238.53 44.17Q240.05 41.95 240.83 39.22Q241.60 36.50 241.60 33.75Q241.60 30.65 240.75 27.60Q239.90 24.55 238.25 22.05Q236.60 19.55 234.18 18.02Q231.75 16.50 228.65 16.50Q225.55 16.50 223.23 17.85Q220.90 19.20 219.38 21.42Q217.85 23.65 217.08 26.37Q216.30 29.10 216.30 31.90Q216.30 34.65 217.08 37.65Q217.85 40.65 219.45 43.25Q221.05 45.85 223.50 47.45Q225.95 49.05 229.30 49.05ZM271.20 25.90Q271.05 23.50 270.05 21.35Q269.05 19.20 267.15 17.85Q265.25 16.50 262.30 16.50Q259.20 16.50 257.55 18.25Q255.90 20.00 255.90 22.35Q255.90 24.45 257.10 25.87Q258.30 27.30 260.23 28.37Q262.15 29.45 264.30 30.45Q266.20 31.30 268.10 32.27Q270 33.25 271.55 34.50Q273.10 35.75 274.03 37.47Q274.95 39.20 274.95 41.60Q274.95 44.35 273.57 46.50Q272.20 48.65 269.60 49.88Q267 51.10 263.25 51.10Q261 51.10 258.60 50.45Q256.20 49.80 254.35 48.55L254.60 50.70L252 50.70L251.70 40.05L253.65 40.05Q253.90 44.45 256.70 46.72Q259.50 49 263.45 49Q265.40 49 267.05 48.27Q268.70 47.55 269.68 46.15Q270.65 44.75 270.65 42.75Q270.65 40.50 269.45 39Q268.25 37.50 266.35 36.40Q264.45 35.30 262.30 34.30Q260.40 33.45 258.55 32.50Q256.70 31.55 255.18 30.32Q253.65 29.10 252.73 27.40Q251.80 25.70 251.80 23.30Q251.80 22.00 252.25 20.50Q252.70 19.00 253.83 17.62Q254.95 16.25 256.93 15.37Q258.90 14.50 261.95 14.50Q263.85 14.50 266.23 15.02Q268.60 15.55 270.65 17.05L270.45 14.90L273 14.90L273 25.90L271.20 25.90Z"/>
        </g>
    </g>
</svg>

